<?xml version="1.0" encoding="utf-8"?>
<!-- Generator: Adobe Illustrator 27.0.0, SVG Export Plug-In . SVG Version: 6.00 Build 0)  -->
<svg version="1.1" id="Layer_1" xmlns="http://www.w3.org/2000/svg" xmlns:xlink="http://www.w3.org/1999/xlink" x="0px" y="0px"
	 viewBox="0 0 595.28 841.89" style="enable-background:new 0 0 595.28 841.89;" xml:space="preserve">
<style type="text/css">
	.st0{fill:#7D2453;}
	.st1{fill:#9BC1A9;}
	.st2{fill:#8BAEA1;}
	.st3{fill:#BCBDC0;}
</style>
<g>
	<path class="st0" d="M240.94,386.54c5.16-2.01,10.58,1.23,14.19,3.38c0.97,0.58,5.95,3.63,9.73,9.87
		c1.98,3.26,4.48,7.39,3.92,12.84c-0.43,4.14-2.42,7.02-3.38,8.38c-3.48,4.91-8.27,6.81-10.54,7.71c-1.33,0.53-3.5,1.36-6.49,1.62
		c-2.28,0.2-6.23,0.54-10.14-1.76c-3.74-2.2-5.35-5.58-5.95-6.89c-1.51-3.29-1.43-6.11-1.22-11.63c0.24-6.1,0.37-9.54,2.16-13.79
		C234.76,392.66,236.63,388.21,240.94,386.54z"/>
	<path class="st1" d="M231.96,370.38c0.85-2.09,3.08-3.18,4.06-3.65c1.64-0.8,3.07-0.95,4.56-1.12c2.1-0.23,2.51,0.05,6.29-0.1
		c1.97-0.08,3.08-0.21,4.06-1.01c0.18-0.15,1.3-1.07,1.12-2.03c-0.13-0.66-0.84-1.17-2.23-1.62c-3.46-1.13-5.92-0.18-11.05-0.1
		c-2.83,0.05-4.25,0.07-5.07-0.51c-2.12-1.49-1.11-3.94-3.65-8.82c-1.13-2.17-1.8-2.58-1.62-3.65c0.29-1.77,2.45-2.72,6.29-4.36
		c4.18-1.79,6.28-2.68,8.41-2.33c3.16,0.51,5.52,2.81,6.59,3.85c2.03,1.98,2.53,3.54,4.87,4.46c0.65,0.26,2.43,0.97,3.45,0.1
		c0.82-0.7,0.86-2.19,0.41-3.24c-0.7-1.6-2.31-1.54-4.97-3.04c-1.63-0.92-4.39-2.48-5.37-5.27c-0.66-1.86-0.7-4.76,0.91-6.18
		c0.87-0.78,1.78-0.72,8.11-0.1c5.93,0.58,6.35,0.64,7.1,1.12c2.5,1.59,4.13,4.88,4.56,7.7c0.35,2.29-0.11,4.06,1.22,5.17
		c0.08,0.07,1.14,0.94,2.33,0.61c0.98-0.27,1.73-1.27,1.82-2.23c0.16-1.52-1.41-1.94-2.33-4.36c-0.25-0.66-1.12-2.95-0.1-4.26
		c1.25-1.6,4.54-0.7,4.87-0.61c3.09,0.89,5.21,3.84,5.68,6.59c0.07,0.42,0.09,0.78,0.1,1.01c4.12,12.72,2.52,18.75,0.1,21.9
		c-1.24,1.62-4.12,4.32-5.17,9.02c-0.58,2.6-0.09,3.49-0.61,5.68c-0.21,0.88-2.08,7.67-7.4,9.23c-0.55,0.16-2.51,0.71-4.66-0.1
		c-2.19-0.82-4.36-2.97-4.36-5.27c0-1.53,0.96-3,1.52-3.85c0.98-1.5,1.9-2.06,1.72-2.94c-0.14-0.71-0.92-1.25-1.62-1.42
		c-1.34-0.32-2.4,0.74-4.46,2.03c-1.41,0.88-2.98,1.48-4.46,2.23c-3.95,2.01-14.12,4.13-18.86-0.81
		C232.29,376.21,230.91,372.94,231.96,370.38z"/>
	<path class="st2" d="M187.35,419.5c-1.12-1.95-0.61-4.39-0.38-5.44c0.38-1.78,1.14-3.01,1.93-4.28c1.11-1.79,1.59-1.95,3.79-5.02
		c1.15-1.6,1.73-2.55,1.7-3.82c-0.01-0.23-0.05-1.68-0.91-2.13c-0.6-0.3-1.44-0.06-2.65,0.76c-3.02,2.04-3.79,4.56-6.88,8.65
		c-1.71,2.26-2.56,3.39-3.52,3.68c-2.47,0.75-3.78-1.55-9.2-2.55c-2.41-0.45-3.14-0.17-3.88-0.97c-1.21-1.31-0.64-3.6,0.43-7.64
		c1.17-4.4,1.75-6.6,3.34-8.07c2.35-2.17,5.62-2.62,7.09-2.82c2.81-0.39,4.35,0.18,6.51-1.09c0.61-0.36,2.26-1.32,2.2-2.65
		c-0.05-1.08-1.2-2.03-2.31-2.32c-1.7-0.43-2.64,0.87-5.45,2.04c-1.73,0.72-4.65,1.94-7.46,0.99c-1.87-0.63-4.18-2.38-4.31-4.52
		c-0.07-1.17,0.53-1.85,4.91-6.46c4.1-4.32,4.41-4.61,5.25-4.91c2.79-1,6.38-0.25,8.88,1.15c2.02,1.13,3.13,2.58,4.82,2.22
		c0.1-0.02,1.44-0.32,1.91-1.46c0.39-0.94,0.06-2.14-0.64-2.81c-1.11-1.06-2.4-0.08-4.87-0.84c-0.67-0.21-3.02-0.93-3.42-2.54
		c-0.49-1.97,2.24-4.01,2.52-4.21c2.6-1.89,6.24-1.74,8.69-0.42c0.38,0.2,0.67,0.4,0.86,0.54c12.56,4.58,16.33,9.55,17.32,13.4
		c0.51,1.98,0.88,5.9,3.93,9.63c1.69,2.06,2.7,2.22,4.1,3.97c0.57,0.71,4.76,6.35,2.72,11.51c-0.21,0.54-0.99,2.42-2.95,3.61
		c-2,1.22-8.15,10.25-8.41,2.99c-0.05-1.53-0.2-5.4-0.53-6.37c-0.58-1.7-0.45-2.77-1.26-3.17c-0.64-0.32-1.55-0.05-2.12,0.41
		c-1.07,0.86-0.89,2.35-1.15,4.76c-0.17,1.65-0.67,3.26-0.99,4.89c-0.84,4.35-5.43,13.68-12.24,14.36
		C192.16,422.82,188.73,421.9,187.35,419.5z"/>
	<path class="st1" d="M106.19,408.04c-1.17-2.35-0.44-5.04-0.12-6.2c0.54-1.97,1.47-3.25,2.45-4.58c1.37-1.88,1.93-1.99,4.62-5.17
		c1.4-1.65,2.13-2.65,2.16-4.09c0.01-0.26,0.05-1.91-0.92-2.52c-0.66-0.42-1.64-0.26-3.07,0.51c-3.57,1.9-4.6,4.64-8.36,8.86
		c-2.08,2.33-3.12,3.49-4.23,3.69c-2.87,0.52-4.23-2.25-10.36-4.1c-2.73-0.82-3.58-0.61-4.37-1.61c-1.31-1.65-0.52-4.16,0.94-8.57
		c1.59-4.81,2.38-7.22,4.28-8.67c2.81-2.14,6.57-2.22,8.26-2.25c3.23-0.06,4.95,0.78,7.5-0.37c0.71-0.32,2.66-1.2,2.67-2.71
		c0.01-1.22-1.25-2.46-2.5-2.92c-1.91-0.72-3.06,0.64-6.35,1.58c-2.02,0.58-5.43,1.57-8.58,0.13c-2.1-0.96-4.63-3.24-4.66-5.69
		c-0.02-1.33,0.71-2.01,5.98-6.64c4.93-4.33,5.31-4.62,6.28-4.85c3.24-0.76,7.3,0.56,10.08,2.47c2.24,1.54,3.43,3.33,5.38,3.15
		c0.12-0.01,1.66-0.18,2.27-1.4c0.5-1.01,0.2-2.41-0.56-3.26c-1.2-1.35-2.73-0.41-5.51-1.6c-0.75-0.32-3.39-1.45-3.76-3.32
		c-0.45-2.3,2.8-4.24,3.12-4.42c3.08-1.79,7.22-1.14,9.95,0.68c0.42,0.28,0.74,0.55,0.95,0.73c14.07,6.84,18.09,12.96,19,17.44
		c0.47,2.3,0.66,6.79,3.93,11.4c1.81,2.56,2.95,2.86,4.45,5.03c0.61,0.88,5.07,7.81,2.43,13.37c-0.27,0.58-1.27,2.6-3.58,3.69
		c-2.35,1.11-5.83,1.15-7.82-0.69c-1.32-1.22-1.87-3.18-2.19-4.31c-0.56-1.99-0.36-3.19-1.25-3.75c-0.72-0.45-1.77-0.26-2.44,0.18
		c-1.28,0.83-1.16,2.54-1.59,5.23c-0.3,1.84-0.96,3.59-1.41,5.39c-1.22,4.8-7,14.73-14.82,14.6
		C111.49,412.44,107.63,410.94,106.19,408.04z"/>
	<path class="st2" d="M146.26,338.08c0.85-2.09,3.08-3.18,4.06-3.65c1.64-0.8,3.07-0.95,4.56-1.12c2.1-0.23,2.51,0.05,6.29-0.1
		c1.97-0.08,3.08-0.21,4.06-1.01c0.18-0.15,1.3-1.07,1.12-2.03c-0.13-0.66-0.84-1.17-2.23-1.62c-3.46-1.13-5.92-0.18-11.05-0.1
		c-2.83,0.05-4.25,0.07-5.07-0.51c-2.12-1.49-1.11-3.94-3.65-8.82c-1.13-2.17-1.8-2.58-1.62-3.65c0.29-1.77,2.45-2.72,6.29-4.36
		c4.18-1.79,6.28-2.68,8.41-2.33c3.16,0.51,5.52,2.81,6.59,3.85c2.03,1.98,2.53,3.54,4.87,4.46c0.65,0.26,2.43,0.97,3.45,0.1
		c0.82-0.7,0.86-2.19,0.41-3.24c-0.7-1.6-2.31-1.54-4.97-3.04c-1.63-0.92-4.39-2.48-5.37-5.27c-0.66-1.86-0.7-4.76,0.91-6.18
		c0.87-0.78,1.78-0.72,8.11-0.1c5.93,0.58,6.35,0.64,7.1,1.12c2.5,1.59,4.13,4.88,4.56,7.71c0.35,2.29-0.11,4.06,1.22,5.17
		c0.08,0.07,1.14,0.94,2.33,0.61c0.98-0.27,1.73-1.27,1.82-2.23c0.16-1.52-1.41-1.94-2.33-4.36c-0.25-0.66-1.12-2.95-0.1-4.26
		c1.25-1.6,4.54-0.7,4.87-0.61c3.09,0.89,5.21,3.84,5.68,6.59c0.07,0.42,0.09,0.78,0.1,1.01c0.36,12.7,2.52,18.75,0.1,21.9
		c-1.24,1.62-4.12,4.32-5.17,9.02c-0.58,2.6-0.09,3.49-0.61,5.68c-0.21,0.88-2.08,7.67-7.4,9.23c-0.55,0.16-2.51,0.71-4.66-0.1
		c-2.19-0.82-4.36-2.97-4.36-5.27c0-1.53,0.96-3,1.52-3.85c0.98-1.5,1.9-2.06,1.72-2.94c-0.14-0.71-0.92-1.25-1.62-1.42
		c-1.34-0.32-2.4,0.74-4.46,2.03c-1.41,0.88-2.98,1.48-4.46,2.23c-3.95,2.01-14.12,4.13-18.86-0.81
		C146.6,343.92,145.22,340.65,146.26,338.08z"/>
	<path class="st2" d="M224.45,477.84c-1.93-0.27-3.36-1.96-3.98-2.7c-1.04-1.24-1.5-2.44-1.98-3.7c-0.67-1.76-0.53-2.19-1.53-5.41
		c-0.52-1.68-0.88-2.62-1.78-3.28c-0.16-0.12-1.19-0.89-1.95-0.51c-0.52,0.25-0.78,0.98-0.84,2.29c-0.14,3.25,1.21,5.17,2.46,9.58
		c0.69,2.44,1.04,3.66,0.74,4.5c-0.75,2.16-3.03,1.83-6.51,5.11c-1.55,1.46-1.74,2.13-2.67,2.21c-1.54,0.14-2.83-1.51-5.08-4.47
		c-2.45-3.22-3.68-4.83-3.88-6.76c-0.3-2.84,1.07-5.4,1.69-6.55c1.18-2.2,2.36-2.98,2.6-5.2c0.07-0.62,0.24-2.32-0.71-3
		c-0.77-0.55-2.03-0.26-2.8,0.37c-1.18,0.96-0.75,2.34-1.39,4.97c-0.39,1.62-1.05,4.35-3.16,5.82c-1.4,0.98-3.81,1.66-5.37,0.58
		c-0.85-0.58-1.01-1.38-1.95-6.99c-0.88-5.25-0.93-5.63-0.7-6.39c0.75-2.52,3.11-4.65,5.37-5.66c1.83-0.81,3.41-0.81,4.03-2.2
		c0.04-0.08,0.52-1.2-0.03-2.15c-0.45-0.79-1.45-1.21-2.28-1.08c-1.31,0.2-1.29,1.65-3.1,2.98c-0.49,0.36-2.2,1.63-3.53,1.03
		c-1.63-0.73-1.63-3.77-1.63-4.07c0.03-2.87,2.01-5.36,4.19-6.37c0.34-0.16,0.63-0.25,0.82-0.31c9.65-6.38,15.05-6.34,18.23-4.95
		c1.64,0.72,4.55,2.6,8.71,2.47c2.31-0.07,2.93-0.7,4.87-0.73c0.78-0.01,6.87,0.09,9.4,4.35c0.26,0.44,1.17,2.02,0.99,4.06
		c-0.18,2.08-1.47,4.43-3.39,4.94c-1.27,0.34-2.72-0.17-3.56-0.46c-1.48-0.51-2.16-1.19-2.85-0.84c-0.56,0.28-0.83,1.07-0.81,1.72
		c0.04,1.23,1.17,1.91,2.72,3.41c1.06,1.02,1.92,2.25,2.89,3.36c2.59,2.97,6.7,11.3,3.67,16.49
		C229.24,476.26,226.83,478.18,224.45,477.84z"/>
	<path class="st1" d="M129.71,469.57c-1.19-1.58-1.01-3.8-0.93-4.77c0.14-1.63,0.67-2.82,1.22-4.06c0.78-1.74,1.18-1.94,2.77-4.96
		c0.83-1.57,1.24-2.5,1.07-3.61c-0.03-0.2-0.22-1.48-1.03-1.76c-0.55-0.19-1.26,0.14-2.24,1.03c-2.42,2.22-2.82,4.55-5.08,8.6
		c-1.25,2.23-1.87,3.35-2.68,3.74c-2.08,1-3.48-0.86-8.33-1.01c-2.16-0.07-2.77,0.27-3.5-0.33c-1.21-1-0.95-3.1-0.46-6.82
		c0.54-4.05,0.81-6.08,2.04-7.6c1.82-2.24,4.63-3.09,5.9-3.47c2.42-0.72,3.82-0.43,5.58-1.85c0.49-0.4,1.83-1.48,1.64-2.65
		c-0.16-0.95-1.27-1.64-2.27-1.74c-1.53-0.15-2.21,1.13-4.55,2.55c-1.44,0.87-3.86,2.35-6.42,1.89c-1.71-0.3-3.91-1.54-4.27-3.42
		c-0.19-1.02,0.26-1.71,3.59-6.39c3.12-4.38,3.36-4.68,4.05-5.06c2.33-1.26,5.56-1.09,7.89-0.19c1.89,0.73,3.02,1.86,4.46,1.31
		c0.09-0.03,1.22-0.48,1.52-1.56c0.24-0.89-0.18-1.9-0.86-2.4c-1.08-0.79-2.11,0.25-4.35-0.09c-0.61-0.09-2.74-0.41-3.27-1.78
		c-0.65-1.68,1.52-3.86,1.74-4.07c2.07-2.03,5.27-2.39,7.55-1.55c0.35,0.13,0.63,0.27,0.81,0.36c11.49,2.35,15.33,6.24,16.62,9.51
		c0.66,1.68,1.41,5.11,4.49,7.99c1.71,1.6,2.6,1.6,4.02,2.96c0.57,0.55,4.86,4.98,3.63,9.83c-0.13,0.5-0.6,2.27-2.19,3.6
		c-1.62,1.35-4.22,2.11-5.96,1.1c-1.16-0.67-1.83-2.07-2.23-2.88c-0.69-1.42-0.7-2.39-1.45-2.63c-0.6-0.2-1.36,0.17-1.81,0.65
		c-0.85,0.91-0.52,2.21-0.48,4.38c0.03,1.49-0.23,2.98-0.33,4.46c-0.26,3.97-3.26,12.85-9.14,14.39
		C134.28,471.86,131.18,471.51,129.71,469.57z"/>
	<path class="st2" d="M118.01,266.62c1.24-1.88,3.65-2.51,4.69-2.78c1.76-0.46,3.2-0.33,4.69-0.2c2.1,0.19,2.45,0.55,6.18,1.14
		c1.94,0.31,3.06,0.4,4.18-0.2c0.2-0.11,1.48-0.8,1.49-1.77c0.01-0.67-0.59-1.31-1.87-2.03c-3.18-1.79-5.77-1.35-10.81-2.27
		c-2.79-0.51-4.18-0.77-4.87-1.49c-1.78-1.87-0.31-4.08-1.84-9.37c-0.68-2.35-1.25-2.89-0.87-3.9c0.63-1.67,2.93-2.19,7.02-3.04
		c4.45-0.93,6.68-1.39,8.71-0.63c2.99,1.12,4.86,3.84,5.7,5.07c1.6,2.34,1.79,3.97,3.89,5.33c0.59,0.38,2.2,1.43,3.36,0.78
		c0.94-0.52,1.28-1.98,1.04-3.1c-0.37-1.71-1.96-1.97-4.27-3.96c-1.42-1.22-3.82-3.29-4.23-6.23c-0.28-1.95,0.25-4.8,2.11-5.88
		c1.01-0.59,1.89-0.35,7.97,1.5c5.7,1.73,6.1,1.88,6.74,2.49c2.14,2.05,3.09,5.59,2.96,8.45c-0.1,2.31-0.9,3.96,0.18,5.31
		c0.06,0.08,0.94,1.14,2.17,1.05c1.02-0.07,1.94-0.9,2.23-1.83c0.45-1.46-1-2.18-1.43-4.73c-0.12-0.69-0.52-3.11,0.74-4.19
		c1.54-1.33,4.59,0.21,4.89,0.36c2.85,1.48,4.35,4.79,4.27,7.58c-0.01,0.43-0.06,0.78-0.1,1.01c1.54,13.28-1.22,18.88-4.21,21.49
		c-1.54,1.34-4.89,3.43-6.84,7.83c-1.09,2.44-0.77,3.41-1.71,5.45c-0.38,0.82-3.54,7.11-9.07,7.59c-0.58,0.05-2.6,0.2-4.55-1.02
		c-1.99-1.24-3.69-3.77-3.24-6.03c0.3-1.5,1.53-2.75,2.25-3.48c1.26-1.28,2.27-1.65,2.27-2.54c0-0.72-0.65-1.41-1.31-1.71
		c-1.25-0.57-2.5,0.26-4.77,1.11c-1.56,0.59-3.21,0.86-4.81,1.31c-4.27,1.2-14.66,1.28-18.33-4.5
		C117.2,272.41,116.48,268.93,118.01,266.62z"/>
	<path class="st1" d="M58.38,312.22c0.8-2.2,3.14-3.44,4.16-3.98c1.71-0.91,3.24-1.14,4.83-1.39c2.23-0.34,2.69-0.07,6.72-0.43
		c2.1-0.18,3.28-0.37,4.29-1.26c0.18-0.16,1.34-1.17,1.09-2.15c-0.17-0.67-0.95-1.16-2.47-1.56c-3.76-0.99-6.35,0.11-11.83,0.46
		c-3.03,0.19-4.54,0.29-5.45-0.26c-2.34-1.43-1.38-4.01-4.34-8.92c-1.32-2.19-2.05-2.58-1.92-3.69c0.22-1.84,2.48-2.94,6.51-4.83
		c4.39-2.06,6.58-3.09,8.89-2.84c3.4,0.37,6.05,2.62,7.24,3.64c2.27,1.94,2.89,3.52,5.43,4.36c0.71,0.23,2.65,0.87,3.69-0.07
		c0.84-0.76,0.82-2.31,0.27-3.37c-0.83-1.62-2.55-1.47-5.47-2.89c-1.79-0.87-4.82-2.33-6.01-5.17c-0.79-1.89-0.98-4.88,0.67-6.44
		c0.9-0.85,1.87-0.83,8.67-0.52c6.37,0.29,6.83,0.34,7.65,0.79c2.76,1.51,4.66,4.82,5.26,7.73c0.49,2.34,0.09,4.2,1.56,5.28
		c0.09,0.06,1.27,0.91,2.53,0.51c1.04-0.33,1.78-1.4,1.84-2.4c0.09-1.58-1.61-1.93-2.71-4.38c-0.3-0.67-1.35-2.99-0.32-4.39
		c1.26-1.72,4.83-0.96,5.18-0.88c3.35,0.76,5.76,3.7,6.4,6.52c0.1,0.43,0.14,0.8,0.16,1.04c5.04,12.92,3.62,19.24,1.19,22.62
		c-1.25,1.74-4.19,4.68-5.08,9.59c-0.5,2.72,0.08,3.61-0.37,5.9c-0.18,0.92-1.84,8.03-7.46,9.91c-0.59,0.2-2.65,0.86-4.99,0.13
		c-2.39-0.74-4.81-2.85-4.93-5.22c-0.07-1.58,0.88-3.15,1.44-4.06c0.97-1.6,1.93-2.23,1.7-3.13c-0.19-0.72-1.04-1.25-1.81-1.38
		c-1.45-0.26-2.58,0.83-4.67,2.32c-1.1,0.79-1.54,1.84-3.27,4.18c-4.06,5.48-15.41,5.09-21.61-1.51
		C59.17,318.09,57.39,314.93,58.38,312.22z"/>
	<path class="st2" d="M22.18,372.45c0.07-2.1,1.68-3.78,2.38-4.51c1.18-1.23,2.39-1.83,3.65-2.45c1.77-0.88,2.22-0.77,5.49-2.12
		c1.7-0.71,2.64-1.18,3.23-2.2c0.11-0.19,0.79-1.36,0.32-2.14c-0.32-0.54-1.11-0.75-2.48-0.7c-3.41,0.13-5.26,1.76-9.74,3.49
		c-2.47,0.96-3.71,1.44-4.62,1.2c-2.34-0.62-2.24-3.09-6.06-6.55c-1.7-1.54-2.41-1.68-2.6-2.68c-0.32-1.64,1.27-3.18,4.11-5.86
		c3.1-2.92,4.65-4.38,6.64-4.77c2.94-0.57,5.76,0.68,7.03,1.25c2.43,1.08,3.37,2.28,5.72,2.34c0.66,0.02,2.45,0.06,3.06-1.03
		c0.49-0.88,0.05-2.2-0.69-2.98c-1.13-1.18-2.53-0.6-5.35-1.06c-1.73-0.28-4.66-0.75-6.42-2.88c-1.18-1.42-2.15-3.95-1.2-5.72
		c0.52-0.96,1.33-1.2,7.09-2.71c5.39-1.41,5.78-1.49,6.59-1.32c2.71,0.58,5.2,2.94,6.5,5.28c1.05,1.89,1.22,3.59,2.74,4.14
		c0.09,0.03,1.31,0.45,2.24-0.22c0.77-0.55,1.11-1.67,0.88-2.55c-0.36-1.39-1.87-1.25-3.46-3.07c-0.43-0.49-1.94-2.22-1.47-3.7
		c0.58-1.81,3.76-2.09,4.08-2.11c3-0.22,5.82,1.69,7.12,3.94c0.2,0.35,0.33,0.65,0.42,0.86c7.73,9.82,8.27,15.63,7.17,19.17
		c-0.57,1.82-2.22,5.12-1.62,9.59c0.33,2.47,1.05,3.09,1.3,5.18c0.1,0.84,0.65,7.39-3.52,10.49c-0.43,0.32-1.98,1.43-4.13,1.42
		c-2.19-0.01-4.79-1.19-5.53-3.21c-0.49-1.34-0.12-2.94,0.09-3.87c0.38-1.63,1-2.42,0.56-3.14c-0.35-0.57-1.21-0.8-1.88-0.72
		c-1.28,0.16-1.87,1.43-3.26,3.22c-0.95,1.23-2.14,2.26-3.2,3.4c-2.82,3.04-11.07,8.2-16.82,5.39
		C24.37,377.46,22.1,375.04,22.18,372.45z"/>
	<path class="st2" d="M51.32,447.16c-1.44-1.5-1.51-3.84-1.54-4.86c-0.06-1.72,0.35-3.02,0.78-4.37c0.6-1.9,0.99-2.16,2.28-5.49
		c0.67-1.74,0.99-2.75,0.68-3.89c-0.06-0.21-0.41-1.52-1.29-1.71c-0.6-0.13-1.3,0.3-2.21,1.34c-2.26,2.6-2.39,5.08-4.25,9.56
		c-1.03,2.48-1.54,3.71-2.34,4.22c-2.05,1.29-3.73-0.48-8.8-0.06c-2.26,0.19-2.85,0.62-3.69,0.07c-1.38-0.9-1.37-3.12-1.3-7.05
		c0.07-4.29,0.11-6.43,1.21-8.16c1.62-2.55,4.45-3.76,5.73-4.31c2.43-1.04,3.93-0.91,5.59-2.59c0.46-0.47,1.73-1.76,1.39-2.96
		c-0.28-0.97-1.52-1.55-2.58-1.54c-1.62,0.02-2.17,1.44-4.43,3.2c-1.39,1.08-3.74,2.9-6.47,2.74c-1.82-0.11-4.27-1.14-4.86-3.05
		c-0.32-1.04,0.07-1.81,2.97-7.08c2.72-4.93,2.93-5.28,3.62-5.75c2.28-1.59,5.66-1.8,8.21-1.14c2.06,0.53,3.38,1.57,4.81,0.83
		c0.08-0.04,1.22-0.65,1.39-1.8c0.14-0.95-0.42-1.96-1.19-2.4c-1.22-0.69-2.17,0.51-4.55,0.43c-0.65-0.02-2.91-0.1-3.62-1.47
		c-0.88-1.67,1.12-4.2,1.32-4.45c1.91-2.36,5.2-3.12,7.69-2.52c0.38,0.09,0.69,0.2,0.89,0.28c12.26,1.07,16.74,4.67,18.48,7.92
		c0.9,1.67,2.09,5.15,5.65,7.79c1.97,1.46,2.91,1.35,4.55,2.6c0.66,0.51,5.67,4.61,4.98,9.8c-0.07,0.54,1.27,5.17-0.22,6.74
		c-1.52,1.6-5.77-0.03-7.71-0.87c-1.29-0.56-2.16-1.93-2.67-2.73c-0.89-1.4-1.02-2.4-1.83-2.57c-0.65-0.14-1.4,0.34-1.81,0.89
		c-0.77,1.05-0.28,2.36,0.03,4.61c0.21,1.55,0.12,3.13,0.2,4.69c0.21,4.16-1.84,13.77-7.79,16.08
		C56.36,449,53.09,449.01,51.32,447.16z"/>
	<path class="st1" d="M197.71,262.04c2.28-0.74,4.78,0.37,5.87,0.85c1.84,0.81,3.01,1.9,4.23,3.04c1.72,1.6,1.8,2.14,4.7,5.19
		c1.51,1.59,2.42,2.43,3.78,2.69c0.25,0.05,1.8,0.34,2.43-0.48c0.43-0.56,0.31-1.51-0.35-2.99c-1.65-3.68-4.2-5.08-8.03-9.31
		c-2.12-2.34-3.17-3.5-3.32-4.59c-0.37-2.8,2.31-3.67,4.32-9.19c0.89-2.46,0.73-3.3,1.7-3.9c1.61-0.99,3.95,0.15,8.07,2.22
		c4.49,2.26,6.73,3.38,8.03,5.41c1.91,3,1.82,6.58,1.78,8.19c-0.08,3.08-0.94,4.58,0.03,7.18c0.27,0.73,1.02,2.71,2.45,2.95
		c1.16,0.2,2.38-0.8,2.87-1.92c0.76-1.7-0.47-3-1.23-6.27c-0.47-2.01-1.26-5.39,0.24-8.16c1-1.84,3.26-3.89,5.57-3.54
		c1.26,0.19,1.88,0.99,6.03,6.71c3.89,5.36,4.15,5.76,4.33,6.71c0.58,3.2-0.84,6.85-2.76,9.18c-1.56,1.89-3.29,2.74-3.21,4.62
		c0.01,0.11,0.1,1.61,1.23,2.37c0.93,0.63,2.27,0.56,3.11-0.03c1.32-0.93,0.51-2.53,1.75-4.99c0.34-0.67,1.51-2.99,3.3-3.05
		c2.19-0.07,3.89,3.31,4.06,3.65c1.56,3.2,0.78,7.03-1.06,9.34c-0.28,0.35-0.55,0.62-0.73,0.79c-7.06,12.3-13.02,15.16-17.29,15.33
		c-2.2,0.09-6.45-0.43-10.95,1.96c-2.49,1.32-2.83,2.36-4.95,3.44c-0.85,0.44-7.6,3.6-12.75,0.23c-0.54-0.35-2.41-1.61-3.34-3.97
		c-0.96-2.41-0.85-5.72,0.98-7.32c1.21-1.06,3.08-1.28,4.17-1.41c1.91-0.22,3.03,0.15,3.6-0.61c0.46-0.61,0.32-1.64-0.07-2.34
		c-0.73-1.34-2.36-1.49-4.88-2.32c-1.73-0.57-3.36-1.46-5.04-2.18c-4.49-1.9-13.65-8.93-13.2-16.33
		C193.33,266.39,194.91,262.96,197.71,262.04z"/>
	<path class="st2" d="M296.39,203.64c1.76,1.58,2.04,4.2,2.16,5.34c0.2,1.92-0.15,3.4-0.53,4.94c-0.52,2.17-0.95,2.49-2.14,6.3
		c-0.62,1.99-0.89,3.14-0.45,4.4c0.08,0.23,0.6,1.67,1.61,1.83c0.69,0.11,1.45-0.42,2.4-1.65c2.35-3.06,2.3-5.84,4.05-10.98
		c0.97-2.84,1.45-4.26,2.31-4.88c2.22-1.58,4.29,0.29,10.02-0.52c2.55-0.36,3.19-0.88,4.19-0.33c1.64,0.91,1.82,3.4,2.06,7.81
		c0.27,4.81,0.41,7.21-0.7,9.22c-1.63,2.97-4.75,4.51-6.16,5.21c-2.68,1.33-4.4,1.28-6.15,3.27c-0.49,0.56-1.82,2.09-1.33,3.4
		c0.4,1.06,1.86,1.64,3.06,1.55c1.84-0.13,2.35-1.76,4.78-3.88c1.49-1.3,4.02-3.5,7.13-3.49c2.07,0.01,4.95,0.99,5.79,3.1
		c0.45,1.15,0.07,2.03-2.8,8.12c-2.69,5.71-2.9,6.1-3.64,6.68c-2.46,1.93-6.29,2.39-9.24,1.82c-2.39-0.46-3.97-1.54-5.54-0.62
		c-0.09,0.05-1.33,0.81-1.43,2.11c-0.08,1.07,0.64,2.17,1.55,2.61c1.45,0.7,2.42-0.72,5.14-0.78c0.74-0.02,3.32-0.08,4.24,1.41
		c1.14,1.82-0.93,4.78-1.14,5.07c-1.98,2.77-5.66,3.83-8.54,3.33c-0.44-0.08-0.8-0.18-1.04-0.26c-14.04-0.39-19.43-4.13-21.68-7.65
		c-1.16-1.81-2.8-5.63-7.07-8.35c-2.36-1.5-3.42-1.32-5.39-2.62c-0.8-0.52-6.83-4.78-6.48-10.65c0.04-0.61,0.2-2.76,1.77-4.61
		c1.6-1.9,4.49-3.3,6.77-2.48c1.51,0.54,2.62,2.02,3.26,2.88c1.13,1.51,1.36,2.62,2.29,2.76c0.75,0.11,1.57-0.47,1.98-1.12
		c0.79-1.22,0.12-2.66-0.41-5.17c-0.37-1.72-0.39-3.49-0.61-5.24c-0.58-4.65,0.96-15.55,7.54-18.52
		C290.5,201.91,294.22,201.69,296.39,203.64z"/>
	<path class="st2" d="M210.91,173.75c2.2-0.45,4.35,0.8,5.29,1.34c1.58,0.92,2.5,2.02,3.46,3.17c1.35,1.62,1.35,2.12,3.58,5.17
		c1.16,1.59,1.88,2.44,3.1,2.81c0.22,0.07,1.61,0.48,2.31-0.2c0.48-0.47,0.51-1.35,0.11-2.76c-0.99-3.51-3.14-5.03-6.06-9.24
		c-1.61-2.33-2.42-3.49-2.4-4.5c0.06-2.58,2.66-3.11,5.3-7.94c1.18-2.15,1.15-2.93,2.13-3.38c1.63-0.74,3.62,0.52,7.12,2.8
		c3.81,2.48,5.72,3.73,6.62,5.7c1.33,2.91,0.73,6.15,0.46,7.62c-0.51,2.79-1.53,4.07-1,6.53c0.15,0.69,0.55,2.56,1.83,2.92
		c1.04,0.29,2.3-0.5,2.92-1.47c0.94-1.48,0-2.78-0.23-5.82c-0.14-1.87-0.38-5.03,1.39-7.4c1.18-1.58,3.57-3.22,5.65-2.68
		c1.13,0.29,1.59,1.08,4.59,6.68c2.82,5.25,3,5.63,3.02,6.52c0.07,2.96-1.76,6.14-3.87,8.08c-1.7,1.56-3.43,2.17-3.62,3.89
		c-0.01,0.1-0.14,1.47,0.79,2.28c0.77,0.67,2.01,0.73,2.87,0.28c1.35-0.72,0.83-2.25,2.33-4.36c0.41-0.57,1.83-2.57,3.48-2.45
		c2.03,0.15,3.11,3.39,3.21,3.71c0.98,3.06-0.3,6.47-2.32,8.38c-0.31,0.29-0.59,0.51-0.79,0.65c-8.28,10.49-14.18,12.52-18.14,12.26
		c-2.04-0.13-5.88-1.02-10.37,0.72c-2.49,0.96-2.95,1.87-5.06,2.65c-0.85,0.32-7.53,2.54-11.78-1.02c-0.44-0.37-1.98-1.7-2.51-3.93
		c-0.53-2.28,0.04-5.28,1.96-6.55c1.27-0.85,3.03-0.87,4.05-0.88c1.79-0.02,2.77,0.43,3.4-0.2c0.51-0.51,0.53-1.46,0.28-2.14
		c-0.48-1.29-1.96-1.58-4.17-2.58c-1.52-0.68-2.88-1.66-4.33-2.47c-3.87-2.16-11.29-9.44-9.81-16.12
		C206.25,177.28,208.2,174.31,210.91,173.75z"/>
	<path class="st1" d="M139.96,189.37c1.62-1.03,3.71-0.67,4.62-0.52c1.53,0.26,2.6,0.86,3.71,1.49c1.56,0.88,1.72,1.28,4.41,3.04
		c1.4,0.92,2.23,1.38,3.31,1.31c0.2-0.01,1.43-0.1,1.78-0.85c0.24-0.52,0-1.23-0.74-2.23c-1.84-2.5-4.02-3.06-7.61-5.54
		c-1.99-1.37-2.98-2.06-3.26-2.86c-0.73-2.08,1.18-3.28,1.84-7.92c0.29-2.07,0.03-2.68,0.68-3.33c1.07-1.08,3.04-0.67,6.52,0.09
		c3.79,0.83,5.68,1.25,6.99,2.55c1.93,1.92,2.43,4.68,2.66,5.93c0.43,2.38,0.01,3.71,1.16,5.5c0.32,0.5,1.21,1.87,2.34,1.78
		c0.91-0.08,1.69-1.09,1.89-2.05c0.31-1.46-0.84-2.21-1.94-4.57c-0.68-1.45-1.82-3.89-1.11-6.31c0.47-1.62,1.87-3.64,3.69-3.83
		c0.99-0.1,1.59,0.39,5.67,3.95c3.82,3.33,4.08,3.59,4.37,4.29c0.95,2.34,0.45,5.42-0.65,7.6c-0.89,1.76-2.08,2.76-1.72,4.19
		c0.02,0.08,0.33,1.21,1.32,1.58c0.81,0.3,1.82-0.02,2.37-0.64c0.86-0.98-0.02-2.04,0.54-4.18c0.15-0.58,0.68-2.6,2.04-3
		c1.66-0.49,3.5,1.76,3.67,1.99c1.7,2.14,1.71,5.24,0.67,7.38c-0.16,0.33-0.32,0.59-0.43,0.75c-3.44,10.85-7.54,14.24-10.77,15.23
		c-1.66,0.51-4.99,0.96-8.05,3.69c-1.69,1.52-1.79,2.38-3.23,3.63c-0.58,0.51-5.23,4.29-9.7,2.73c-0.46-0.16-2.09-0.75-3.18-2.38
		c-1.11-1.66-1.55-4.22-0.41-5.81c0.76-1.06,2.15-1.6,2.96-1.92c1.42-0.55,2.34-0.49,2.65-1.18c0.25-0.56-0.02-1.32-0.42-1.79
		c-0.77-0.88-2.04-0.67-4.1-0.8c-1.41-0.09-2.8-0.45-4.2-0.66c-3.73-0.56-11.84-4.13-12.67-9.9
		C137.31,193.58,137.97,190.63,139.96,189.37z"/>
	<path class="st2" d="M313.46,285.53c1.97,1.28,2.64,3.78,2.94,4.86c0.5,1.83,0.37,3.33,0.25,4.88c-0.18,2.19-0.55,2.56-1.13,6.45
		c-0.3,2.03-0.39,3.19,0.24,4.35c0.11,0.21,0.84,1.54,1.86,1.54c0.7,0,1.36-0.63,2.1-1.96c1.83-3.32,1.35-6.02,2.27-11.28
		c0.51-2.91,0.76-4.36,1.51-5.08c1.93-1.87,4.24-0.36,9.73-2.01c2.44-0.73,2.99-1.33,4.05-0.94c1.75,0.64,2.3,3.04,3.23,7.28
		c1.01,4.63,1.51,6.94,0.74,9.06c-1.14,3.13-3.96,5.1-5.23,5.98c-2.42,1.69-4.11,1.9-5.51,4.1c-0.39,0.62-1.46,2.3-0.78,3.51
		c0.55,0.97,2.07,1.31,3.24,1.05c1.78-0.4,2.03-2.06,4.08-4.48c1.26-1.49,3.39-4,6.44-4.46c2.03-0.31,5,0.22,6.15,2.14
		c0.62,1.05,0.38,1.96-1.48,8.31c-1.75,5.95-1.9,6.37-2.53,7.04c-2.11,2.25-5.79,3.27-8.77,3.16c-2.41-0.09-4.13-0.9-5.53,0.23
		c-0.08,0.07-1.18,0.98-1.08,2.27c0.08,1.06,0.96,2.01,1.92,2.3c1.53,0.46,2.26-1.06,4.91-1.53c0.72-0.13,3.23-0.57,4.37,0.73
		c1.4,1.6-0.17,4.78-0.33,5.1c-1.51,2.98-4.95,4.57-7.85,4.52c-0.45-0.01-0.81-0.06-1.06-0.09c-13.81,1.72-19.66-1.1-22.41-4.18
		c-1.41-1.59-3.62-5.05-8.21-7.05c-2.55-1.11-3.55-0.77-5.69-1.73c-0.86-0.39-7.43-3.62-7.99-9.37c-0.06-0.6-0.23-2.71,1.02-4.75
		c1.27-2.08,3.89-3.88,6.24-3.43c1.56,0.3,2.88,1.57,3.64,2.31c1.34,1.3,1.74,2.35,2.67,2.34c0.75-0.01,1.46-0.69,1.77-1.38
		c0.59-1.31-0.29-2.6-1.2-4.96c-0.62-1.61-0.93-3.34-1.41-5c-1.29-4.43-1.46-15.25,4.52-19.12
		C307.43,284.73,311.05,283.96,313.46,285.53z"/>
	<path class="st1" d="M427.5,270.71c0.73,2.13-0.25,4.42-0.67,5.41c-0.71,1.68-1.69,2.73-2.71,3.83c-1.43,1.55-1.93,1.61-4.68,4.2
		c-1.43,1.35-2.19,2.17-2.4,3.42c-0.04,0.23-0.28,1.66,0.49,2.26c0.53,0.41,1.4,0.33,2.75-0.24c3.35-1.42,4.59-3.75,8.41-7.17
		c2.11-1.89,3.16-2.84,4.16-2.94c2.57-0.27,3.42,2.24,8.54,4.27c2.28,0.9,3.05,0.77,3.62,1.69c0.94,1.52-0.06,3.66-1.89,7.41
		c-1.99,4.09-2.98,6.14-4.82,7.28c-2.72,1.68-6.01,1.5-7.5,1.41c-2.83-0.16-4.23-1.01-6.6-0.18c-0.66,0.23-2.47,0.87-2.67,2.18
		c-0.16,1.06,0.79,2.22,1.82,2.72c1.58,0.75,2.75-0.35,5.74-0.96c1.84-0.38,4.94-1.01,7.51,0.46c1.72,0.98,3.64,3.14,3.37,5.27
		c-0.15,1.16-0.88,1.71-6.06,5.4c-4.85,3.45-5.21,3.68-6.09,3.81c-2.93,0.44-6.31-0.97-8.5-2.83c-1.77-1.5-2.58-3.13-4.31-3.11
		c-0.1,0-1.48,0.04-2.16,1.07c-0.56,0.85-0.47,2.09,0.08,2.88c0.88,1.25,2.34,0.54,4.62,1.76c0.62,0.33,2.78,1.49,2.87,3.15
		c0.11,2.03-2.97,3.51-3.28,3.65c-2.91,1.36-6.45,0.51-8.61-1.25c-0.33-0.27-0.58-0.53-0.74-0.7c-11.45-6.9-14.19-12.5-14.44-16.47
		c-0.12-2.04,0.27-5.96-2.01-10.2c-1.27-2.35-2.22-2.69-3.26-4.69c-0.42-0.8-3.46-7.15-0.46-11.82c0.31-0.49,1.43-2.18,3.59-2.98
		c2.2-0.82,5.24-0.62,6.75,1.12c1,1.16,1.24,2.89,1.38,3.91c0.24,1.78-0.08,2.8,0.63,3.35c0.57,0.44,1.51,0.34,2.16,0.01
		c1.22-0.64,1.33-2.14,2.04-4.46c0.49-1.59,1.28-3.07,1.91-4.61c1.66-4.11,7.95-12.38,14.77-11.75
		C423.42,266.52,426.61,268.09,427.5,270.71z"/>
	<path class="st2" d="M373.48,390.73c-1.77,1.39-4.25,1.24-5.33,1.17c-1.82-0.11-3.14-0.69-4.52-1.28
		c-1.93-0.84-2.16-1.29-5.52-3.02c-1.75-0.9-2.78-1.34-4.03-1.12c-0.23,0.04-1.66,0.29-1.97,1.21c-0.21,0.63,0.15,1.43,1.14,2.51
		c2.46,2.69,5.06,3.09,9.56,5.55c2.49,1.36,3.73,2.04,4.16,2.94c1.11,2.34-0.98,3.97-1.18,9.47c-0.09,2.45,0.29,3.13-0.39,3.97
		c-1.12,1.39-3.47,1.16-7.62,0.69c-4.52-0.51-6.78-0.77-8.47-2.13c-2.49-2.01-3.41-5.17-3.83-6.6c-0.79-2.72-0.46-4.33-2.03-6.28
		c-0.44-0.55-1.64-2.04-2.95-1.79c-1.06,0.2-1.84,1.48-1.95,2.62c-0.18,1.74,1.25,2.48,2.82,5.1c0.96,1.61,2.59,4.32,2.07,7.24
		c-0.35,1.94-1.74,4.48-3.85,4.93c-1.14,0.24-1.9-0.26-7.1-3.92c-4.87-3.43-5.2-3.69-5.62-4.47c-1.39-2.61-1.18-6.28-0.16-8.95
		c0.82-2.16,2.09-3.48,1.5-5.1c-0.04-0.1-0.53-1.38-1.73-1.68c-0.99-0.25-2.13,0.25-2.69,1.04c-0.89,1.25,0.27,2.39-0.13,4.94
		c-0.11,0.69-0.48,3.12-2.01,3.75c-1.88,0.78-4.3-1.63-4.53-1.87c-2.25-2.29-2.63-5.92-1.68-8.53c0.15-0.4,0.3-0.72,0.41-0.93
		c2.7-13.09,7.07-17.55,10.73-19.09c1.88-0.8,5.71-1.73,8.95-5.29c1.79-1.98,1.8-2.99,3.33-4.64c0.62-0.66,5.59-5.64,10.99-4.37
		c0.56,0.13,2.53,0.63,4.01,2.39c1.5,1.8,2.33,4.74,1.19,6.74c-0.76,1.33-2.32,2.13-3.22,2.6c-1.59,0.82-2.67,0.85-2.95,1.71
		c-0.23,0.68,0.18,1.54,0.71,2.04c1.01,0.94,2.46,0.54,4.88,0.44c1.66-0.07,3.32,0.19,4.98,0.26c4.43,0.2,14.32,3.38,16,10.02
		C376.06,385.49,375.65,389.02,373.48,390.73z"/>
	<path class="st2" d="M443.59,350.3c-0.56,2.23-2.67,3.64-3.58,4.26c-1.54,1.04-2.97,1.4-4.45,1.77c-2.08,0.52-2.55,0.3-6.33,0.99
		c-1.97,0.36-3.08,0.64-3.95,1.6c-0.16,0.17-1.16,1.27-0.84,2.21c0.22,0.65,1.01,1.06,2.48,1.32c3.66,0.65,6.01-0.65,11.17-1.46
		c2.85-0.45,4.28-0.67,5.19-0.2c2.35,1.2,1.67,3.82,4.93,8.39c1.45,2.04,2.18,2.35,2.15,3.46c-0.04,1.82-2.09,3.09-5.73,5.29
		c-3.97,2.39-5.96,3.59-8.17,3.54c-3.26-0.07-5.97-2.06-7.2-2.96c-2.33-1.71-3.06-3.21-5.54-3.82c-0.7-0.17-2.6-0.63-3.5,0.38
		c-0.73,0.82-0.56,2.34,0.05,3.33c0.94,1.52,2.55,1.23,5.45,2.37c1.78,0.7,4.78,1.88,6.17,4.57c0.93,1.79,1.37,4.71-0.05,6.37
		c-0.77,0.91-1.7,0.97-8.18,1.25c-6.07,0.26-6.5,0.25-7.32-0.12c-2.75-1.25-4.86-4.34-5.7-7.14c-0.68-2.26-0.47-4.11-1.96-5.05
		c-0.09-0.06-1.29-0.78-2.44-0.28c-0.95,0.41-1.56,1.52-1.53,2.51c0.06,1.56,1.7,1.76,2.97,4.07c0.35,0.63,1.55,2.82,0.7,4.29
		c-1.04,1.8-4.49,1.35-4.83,1.3c-3.24-0.46-5.8-3.15-6.66-5.85c-0.13-0.42-0.2-0.77-0.25-1.01c-5.96-12.26-5.19-18.58-3.2-22.1
		c1.03-1.81,3.55-4.95,3.95-9.84c0.22-2.71-0.4-3.54-0.19-5.82c0.09-0.92,1.01-8.03,6.17-10.36c0.54-0.24,2.44-1.07,4.72-0.56
		c2.33,0.52,4.83,2.38,5.15,4.71c0.21,1.54-0.55,3.16-0.99,4.11c-0.78,1.65-1.63,2.35-1.33,3.21c0.24,0.69,1.1,1.14,1.84,1.2
		c1.4,0.13,2.32-1.09,4.22-2.68c1.3-1.09,2.8-1.91,4.19-2.88c3.7-2.59,13.68-6.17,19.16-1.84
		C442.43,344.45,444.29,347.56,443.59,350.3z"/>
	<path class="st2" d="M369.21,219.06c1.52,1.33,1.79,3.54,1.91,4.5c0.2,1.62-0.09,2.88-0.39,4.19c-0.42,1.84-0.78,2.11-1.75,5.35
		c-0.51,1.69-0.72,2.66-0.32,3.73c0.07,0.19,0.53,1.41,1.39,1.54c0.59,0.08,1.23-0.37,2.02-1.42c1.96-2.61,1.88-4.96,3.31-9.33
		c0.79-2.41,1.18-3.62,1.91-4.14c1.88-1.36,3.66,0.21,8.53-0.52c2.17-0.32,2.71-0.77,3.56-0.31c1.41,0.76,1.59,2.87,1.86,6.59
		c0.29,4.06,0.44,6.1-0.48,7.8c-1.36,2.52-3.99,3.85-5.18,4.46c-2.27,1.14-3.73,1.11-5.2,2.82c-0.41,0.48-1.53,1.78-1.09,2.89
		c0.35,0.9,1.61,1.37,2.63,1.29c1.56-0.13,1.98-1.51,4.02-3.32c1.26-1.11,3.38-2.99,6.03-3.01c1.77-0.01,4.23,0.8,4.97,2.58
		c0.4,0.97,0.09,1.72-2.28,6.9c-2.22,4.85-2.39,5.19-3.01,5.68c-2.07,1.66-5.33,2.07-7.85,1.62c-2.04-0.37-3.4-1.27-4.73-0.48
		c-0.08,0.05-1.13,0.69-1.2,1.8c-0.06,0.91,0.57,1.83,1.36,2.2c1.25,0.58,2.06-0.63,4.37-0.7c0.63-0.02,2.82-0.09,3.63,1.16
		c0.99,1.53-0.73,4.05-0.9,4.3c-1.65,2.36-4.77,3.29-7.23,2.89c-0.38-0.06-0.69-0.15-0.89-0.21c-11.97-0.22-16.61-3.34-18.57-6.3
		c-1.01-1.52-2.46-4.74-6.13-7.01c-2.03-1.25-2.93-1.09-4.63-2.17c-0.69-0.44-5.88-3.99-5.65-8.96c0.02-0.52,0.13-2.33,1.45-3.92
		c1.34-1.62,3.79-2.83,5.73-2.15c1.29,0.45,2.26,1.69,2.82,2.41c0.98,1.27,1.19,2.21,1.99,2.32c0.64,0.09,1.33-0.41,1.67-0.96
		c0.66-1.04,0.07-2.25-0.42-4.37c-0.33-1.45-0.38-2.95-0.59-4.43c-0.55-3.93,0.62-13.16,6.19-15.73
		C364.17,217.65,367.34,217.43,369.21,219.06z"/>
	<path class="st1" d="M465.8,201.96c0.47,1.77-0.45,3.57-0.85,4.35c-0.67,1.32-1.53,2.12-2.42,2.95c-1.25,1.17-1.66,1.19-4.03,3.13
		c-1.24,1.01-1.9,1.63-2.14,2.64c-0.04,0.18-0.32,1.33,0.26,1.86c0.4,0.37,1.11,0.35,2.24-0.03c2.8-0.96,3.94-2.77,7.23-5.32
		c1.82-1.41,2.73-2.12,3.54-2.14c2.1-0.07,2.64,2.02,6.67,3.95c1.8,0.86,2.43,0.8,2.83,1.58c0.67,1.29-0.26,2.96-1.96,5.9
		c-1.85,3.2-2.77,4.8-4.33,5.62c-2.3,1.21-4.96,0.87-6.16,0.71c-2.29-0.29-3.37-1.06-5.34-0.52c-0.55,0.15-2.05,0.56-2.29,1.61
		c-0.19,0.85,0.51,1.85,1.32,2.3c1.24,0.7,2.25-0.13,4.71-0.45c1.51-0.2,4.06-0.53,6.06,0.8c1.33,0.89,2.77,2.75,2.42,4.46
		c-0.19,0.93-0.81,1.33-5.22,4.02c-4.13,2.52-4.44,2.68-5.15,2.74c-2.4,0.19-5.06-1.15-6.72-2.78c-1.34-1.31-1.91-2.69-3.31-2.77
		c-0.08,0-1.2-0.05-1.81,0.74c-0.51,0.65-0.5,1.66-0.1,2.34c0.64,1.07,1.86,0.57,3.64,1.69c0.48,0.3,2.17,1.37,2.14,2.72
		c-0.03,1.65-2.61,2.67-2.86,2.77c-2.44,0.93-5.26,0.04-6.9-1.51c-0.25-0.24-0.44-0.46-0.56-0.61
		c-8.88-6.25-10.78-10.95-10.74-14.17c0.02-1.66,0.57-4.81-1.04-8.38c-0.89-1.98-1.64-2.31-2.37-3.98c-0.29-0.68-2.39-5.99,0.31-9.6
		c0.28-0.38,1.29-1.68,3.08-2.21c1.83-0.53,4.28-0.2,5.4,1.3c0.74,0.99,0.84,2.42,0.89,3.24c0.09,1.45-0.23,2.26,0.31,2.75
		c0.44,0.39,1.21,0.37,1.75,0.13c1.02-0.45,1.2-1.66,1.91-3.49c0.49-1.26,1.22-2.41,1.81-3.62c1.58-3.23,7.16-9.57,12.64-8.67
		C462.73,198.34,465.22,199.79,465.8,201.96z"/>
	<path class="st2" d="M502.97,298.74c0.12,2.25-1.44,4.19-2.12,5.03c-1.14,1.42-2.37,2.17-3.65,2.95c-1.8,1.1-2.3,1.02-5.65,2.76
		c-1.75,0.91-2.7,1.49-3.24,2.64c-0.1,0.21-0.72,1.52-0.15,2.31c0.39,0.54,1.26,0.7,2.71,0.52c3.62-0.45,5.44-2.35,10.04-4.61
		c2.54-1.25,3.82-1.87,4.8-1.7c2.55,0.45,2.68,3.09,7.05,6.43c1.95,1.49,2.72,1.57,3.02,2.61c0.49,1.72-1.06,3.5-3.84,6.62
		c-3.03,3.4-4.54,5.09-6.62,5.69c-3.08,0.88-6.19-0.2-7.6-0.68c-2.68-0.93-3.8-2.12-6.3-1.97c-0.7,0.04-2.61,0.16-3.16,1.37
		c-0.44,0.98,0.15,2.35,1.01,3.11c1.32,1.15,2.75,0.41,5.79,0.64c1.87,0.14,5.03,0.38,7.11,2.49c1.39,1.41,2.65,4.01,1.8,5.99
		c-0.46,1.07-1.31,1.41-7.3,3.54c-5.61,2-6.02,2.12-6.9,2.01c-2.94-0.37-5.81-2.66-7.41-5.03c-1.29-1.92-1.63-3.72-3.3-4.16
		c-0.1-0.03-1.43-0.36-2.37,0.44c-0.77,0.66-1.02,1.88-0.7,2.79c0.51,1.45,2.1,1.16,3.96,2.95c0.51,0.49,2.27,2.19,1.9,3.81
		c-0.45,1.98-3.81,2.57-4.15,2.62c-3.17,0.51-6.35-1.26-7.94-3.55c-0.24-0.35-0.42-0.66-0.52-0.87c-9.14-9.76-10.25-15.9-9.4-19.78
		c0.44-2,1.89-5.66,0.84-10.37c-0.58-2.6-1.4-3.2-1.86-5.4c-0.19-0.89-1.38-7.82,2.77-11.5c0.43-0.38,1.97-1.71,4.26-1.89
		c2.34-0.19,5.21,0.83,6.19,2.92c0.65,1.38,0.4,3.12,0.26,4.13c-0.25,1.77-0.84,2.67-0.31,3.39c0.43,0.58,1.36,0.74,2.07,0.59
		c1.35-0.28,1.86-1.7,3.18-3.73c0.9-1.4,2.07-2.6,3.09-3.92c2.72-3.5,11.02-9.75,17.41-7.29
		C500.19,293.61,502.83,295.98,502.97,298.74z"/>
	<path class="st2" d="M552.57,363.79c-0.31,1.93-1.99,3.28-2.72,3.87c-1.23,0.99-2.41,1.4-3.64,1.82c-1.73,0.6-2.13,0.44-5.29,1.3
		c-1.65,0.45-2.56,0.77-3.23,1.64c-0.12,0.16-0.89,1.16-0.55,1.93c0.23,0.53,0.93,0.83,2.2,0.94c3.14,0.28,5.04-0.99,9.35-2.05
		c2.38-0.59,3.58-0.88,4.38-0.55c2.07,0.85,1.7,3.11,4.79,6.75c1.38,1.62,2.02,1.83,2.08,2.77c0.1,1.55-1.54,2.77-4.47,4.9
		c-3.19,2.32-4.78,3.48-6.66,3.59c-2.77,0.18-5.21-1.31-6.31-1.98c-2.1-1.28-2.82-2.5-4.97-2.83c-0.6-0.09-2.24-0.35-2.93,0.58
		c-0.56,0.75-0.31,2.02,0.28,2.82c0.9,1.22,2.25,0.86,4.78,1.61c1.56,0.46,4.19,1.24,5.56,3.42c0.91,1.45,1.51,3.88,0.42,5.4
		c-0.59,0.82-1.37,0.95-6.83,1.65c-5.12,0.66-5.49,0.68-6.21,0.43c-2.42-0.86-4.43-3.32-5.34-5.63c-0.74-1.86-0.69-3.45-2.03-4.13
		c-0.08-0.04-1.15-0.57-2.09-0.06c-0.78,0.42-1.21,1.4-1.11,2.24c0.16,1.32,1.57,1.37,2.81,3.23c0.34,0.51,1.52,2.27,0.91,3.58
		c-0.75,1.6-3.7,1.47-3.99,1.45c-2.78-0.15-5.14-2.24-6.07-4.47c-0.14-0.34-0.23-0.64-0.28-0.84c-5.94-9.95-5.75-15.35-4.31-18.48
		c0.74-1.61,2.64-4.45,2.63-8.62c-0.01-2.31-0.6-2.97-0.58-4.91c0.01-0.79,0.27-6.88,4.47-9.22c0.44-0.24,1.99-1.08,3.96-0.81
		c2.01,0.27,4.26,1.67,4.7,3.61c0.29,1.29-0.23,2.72-0.54,3.55c-0.54,1.46-1.21,2.11-0.89,2.82c0.26,0.57,1.02,0.88,1.64,0.89
		c1.19,0.01,1.89-1.09,3.38-2.57c1.02-1.02,2.23-1.82,3.34-2.75c2.95-2.46,11.13-6.22,16.09-2.96
		C551.16,358.93,552.96,361.42,552.57,363.79z"/>
	<path class="st1" d="M525.6,428.17c-0.77,2.12-2.96,3.29-3.92,3.8c-1.61,0.86-3.03,1.07-4.52,1.28c-2.09,0.3-2.51,0.04-6.28,0.34
		c-1.96,0.15-3.07,0.32-4.01,1.16c-0.17,0.15-1.26,1.12-1.04,2.07c0.15,0.65,0.88,1.14,2.29,1.54c3.5,1,5.93-0.04,11.05-0.31
		c2.83-0.15,4.24-0.23,5.08,0.32c2.17,1.41,1.25,3.89,3.98,8.68c1.21,2.13,1.89,2.51,1.76,3.59c-0.22,1.78-2.34,2.81-6.12,4.59
		c-4.12,1.94-6.17,2.91-8.32,2.64c-3.17-0.4-5.62-2.61-6.73-3.6c-2.11-1.9-2.66-3.44-5.03-4.28c-0.66-0.23-2.47-0.87-3.45,0.03
		c-0.79,0.73-0.78,2.23-0.28,3.26c0.76,1.58,2.37,1.45,5.08,2.85c1.67,0.86,4.48,2.31,5.57,5.07c0.72,1.84,0.87,4.73-0.68,6.21
		c-0.84,0.81-1.75,0.78-8.1,0.4c-5.94-0.35-6.37-0.4-7.13-0.85c-2.56-1.49-4.31-4.72-4.85-7.53c-0.44-2.27-0.05-4.06-1.41-5.12
		c-0.08-0.06-1.18-0.89-2.35-0.52c-0.97,0.31-1.68,1.33-1.74,2.3c-0.1,1.53,1.48,1.89,2.49,4.27c0.27,0.65,1.23,2.9,0.26,4.25
		c-1.19,1.65-4.51,0.87-4.84,0.79c-3.12-0.77-5.35-3.65-5.92-6.37c-0.09-0.42-0.12-0.77-0.14-1.01
		c-4.59-12.55-3.21-18.64-0.92-21.88c1.18-1.67,3.95-4.47,4.83-9.21c0.49-2.62-0.04-3.49,0.4-5.7c0.18-0.89,1.79-7.74,7.05-9.49
		c0.55-0.18,2.48-0.8,4.66-0.07c2.22,0.74,4.47,2.81,4.55,5.11c0.05,1.53-0.85,3.03-1.38,3.91c-0.92,1.54-1.82,2.13-1.61,3
		c0.17,0.7,0.96,1.22,1.67,1.36c1.35,0.27,2.37-0.83,4.38-2.19c1.38-0.93,2.92-1.59,4.37-2.39c3.87-2.16,13.96-4.66,18.87,0.11
		C525.05,422.35,526.55,425.57,525.6,428.17z"/>
	<path class="st1" d="M454.89,452.06c-2.14,1.05-4.67,0.34-5.77,0.04c-1.86-0.52-3.1-1.4-4.39-2.32c-1.82-1.29-1.95-1.81-5.04-4.34
		c-1.61-1.32-2.58-2-3.92-2.05c-0.24-0.01-1.78-0.07-2.31,0.82c-0.36,0.61-0.16,1.51,0.62,2.85c1.95,3.33,4.55,4.31,8.66,7.85
		c2.27,1.95,3.41,2.93,3.65,3.96c0.63,2.66-1.89,3.89-3.31,9.54c-0.63,2.51-0.39,3.3-1.28,4.02c-1.47,1.19-3.85,0.43-8.03-0.97
		c-4.56-1.53-6.84-2.29-8.29-4.07c-2.13-2.62-2.39-6.1-2.5-7.68c-0.22-2.99,0.48-4.58-0.71-6.95c-0.33-0.66-1.25-2.47-2.65-2.5
		c-1.14-0.02-2.23,1.13-2.6,2.28c-0.57,1.76,0.74,2.84,1.79,5.89c0.64,1.88,1.73,5.04,0.54,7.94c-0.79,1.93-2.79,4.25-5.07,4.25
		c-1.24,0-1.91-0.69-6.48-5.62c-4.28-4.62-4.57-4.97-4.83-5.87c-0.86-3.01,0.16-6.75,1.81-9.3c1.33-2.05,2.93-3.13,2.67-4.94
		c-0.02-0.11-0.25-1.54-1.42-2.12c-0.97-0.48-2.25-0.21-3.01,0.48c-1.19,1.1-0.25,2.53-1.22,5.08c-0.26,0.69-1.18,3.12-2.91,3.44
		c-2.12,0.39-4.08-2.64-4.27-2.94c-1.82-2.87-1.42-6.7,0.14-9.2c0.24-0.38,0.47-0.68,0.63-0.87c5.68-12.94,11.18-16.59,15.31-17.38
		c2.12-0.41,6.29-0.53,10.43-3.5c2.29-1.65,2.52-2.7,4.47-4.06c0.79-0.55,7.03-4.6,12.33-2.09c0.55,0.26,2.48,1.21,3.61,3.36
		c1.15,2.19,1.36,5.41-0.26,7.23c-1.08,1.21-2.87,1.69-3.91,1.98c-1.83,0.5-2.95,0.29-3.43,1.11c-0.38,0.66-0.16,1.63,0.28,2.26
		c0.84,1.19,2.42,1.1,4.95,1.53c1.73,0.3,3.39,0.93,5.09,1.37c4.53,1.18,14.07,6.66,14.34,13.89
		C458.72,447.21,457.52,450.77,454.89,452.06z"/>
	<path class="st2" d="M370.97,468.77c-1.83,0.34-3.59-0.73-4.36-1.2c-1.29-0.79-2.04-1.72-2.82-2.68c-1.09-1.36-1.09-1.78-2.88-4.34
		c-0.93-1.34-1.52-2.05-2.52-2.38c-0.18-0.06-1.33-0.43-1.91,0.13c-0.4,0.38-0.44,1.11-0.14,2.28c0.76,2.92,2.52,4.21,4.87,7.75
		c1.3,1.95,1.95,2.93,1.91,3.76c-0.09,2.14-2.25,2.53-4.52,6.49c-1.01,1.76-1,2.41-1.82,2.76c-1.36,0.59-2.99-0.49-5.85-2.44
		c-3.12-2.12-4.67-3.18-5.39-4.83c-1.05-2.43-0.5-5.11-0.26-6.32c0.47-2.3,1.33-3.35,0.94-5.39c-0.11-0.57-0.41-2.13-1.47-2.45
		c-0.85-0.26-1.92,0.38-2.44,1.17c-0.81,1.21-0.04,2.3,0.1,4.82c0.09,1.55,0.23,4.17-1.28,6.1c-1.01,1.29-3.01,2.61-4.72,2.13
		c-0.93-0.26-1.3-0.92-3.69-5.61c-2.25-4.39-2.39-4.72-2.39-5.45c-0.01-2.45,1.56-5.06,3.34-6.62c1.44-1.27,2.88-1.74,3.06-3.16
		c0.01-0.08,0.14-1.21-0.62-1.9c-0.63-0.56-1.65-0.64-2.37-0.28c-1.13,0.57-0.72,1.85-2,3.57c-0.35,0.47-1.55,2.1-2.92,1.97
		c-1.68-0.16-2.52-2.86-2.6-3.12c-0.76-2.55,0.35-5.35,2.06-6.9c0.26-0.24,0.5-0.41,0.66-0.52c7.03-8.55,11.95-10.13,15.23-9.85
		c1.69,0.14,4.85,0.94,8.6-0.42c2.08-0.76,2.47-1.5,4.23-2.11c0.71-0.25,6.27-1.98,9.74,1.04c0.36,0.31,5.22,3.06,6.16,4.72
		c1.49,2.66-0.86,5.63-5.47,4.56c-1.23-0.29-2.92,0.08-3.77,0.07c-1.48-0.01-2.29-0.4-2.82,0.11c-0.43,0.41-0.46,1.2-0.27,1.77
		c0.38,1.08,1.59,1.34,3.41,2.21c1.24,0.59,2.36,1.42,3.55,2.12c3.17,1.85,5.92,8.19,7.86,13.52
		C376.45,466.77,373.22,468.35,370.97,468.77z"/>
	<path class="st2" d="M361.39,139.32c1.86,1.49,2.29,4.09,2.48,5.22c0.32,1.9,0.04,3.4-0.25,4.97c-0.4,2.19-0.81,2.53-1.8,6.41
		c-0.51,2.02-0.72,3.18-0.2,4.42c0.09,0.22,0.69,1.64,1.72,1.74c0.7,0.07,1.44-0.5,2.32-1.77c2.19-3.18,1.98-5.96,3.44-11.18
		c0.81-2.89,1.21-4.33,2.05-4.99c2.15-1.7,4.33,0.07,10.05-1.04c2.55-0.49,3.16-1.04,4.19-0.54c1.7,0.83,2.02,3.31,2.52,7.7
		c0.55,4.79,0.82,7.18-0.18,9.24c-1.47,3.05-4.52,4.75-5.9,5.52c-2.62,1.47-4.35,1.5-6,3.59c-0.46,0.59-1.72,2.18-1.14,3.47
		c0.46,1.04,1.97,1.54,3.17,1.39c1.84-0.23,2.26-1.88,4.59-4.12c1.43-1.38,3.84-3.7,6.97-3.86c2.09-0.1,5.04,0.73,6,2.79
		c0.52,1.12,0.19,2.02-2.35,8.26c-2.37,5.84-2.57,6.25-3.28,6.86c-2.36,2.06-6.19,2.71-9.2,2.3c-2.43-0.33-4.08-1.33-5.61-0.33
		c-0.09,0.06-1.29,0.88-1.32,2.18c-0.02,1.08,0.76,2.13,1.71,2.53c1.5,0.62,2.4-0.84,5.13-1.05c0.74-0.06,3.33-0.25,4.35,1.18
		c1.25,1.76-0.66,4.82-0.85,5.12c-1.83,2.87-5.47,4.12-8.4,3.77c-0.45-0.05-0.82-0.14-1.06-0.2c-14.15,0.34-19.78-3.11-22.25-6.51
		c-1.27-1.75-3.14-5.48-7.59-7.97c-2.46-1.38-3.52-1.15-5.58-2.33c-0.83-0.48-7.15-4.42-7.12-10.3c0-0.61,0.04-2.76,1.51-4.7
		c1.5-1.98,4.33-3.53,6.67-2.83c1.55,0.46,2.75,1.88,3.45,2.71c1.23,1.45,1.52,2.55,2.46,2.64c0.76,0.07,1.55-0.55,1.93-1.22
		c0.73-1.26-0.03-2.66-0.71-5.14c-0.47-1.7-0.6-3.47-0.92-5.2c-0.85-4.61,0.07-15.58,6.52-18.89
		C355.37,137.9,359.1,137.48,361.39,139.32z"/>
	<path class="st1" d="M278.33,123.83c1.83,0.53,2.94,2.29,3.42,3.06c0.81,1.29,1.06,2.47,1.32,3.7c0.37,1.72,0.17,2.09,0.62,5.21
		c0.23,1.63,0.43,2.54,1.2,3.28c0.14,0.13,1.01,0.99,1.8,0.75c0.54-0.16,0.91-0.8,1.18-1.99c0.66-2.98-0.34-4.94-0.85-9.19
		c-0.28-2.35-0.42-3.52,0-4.26c1.07-1.89,3.22-1.26,7.12-3.79c1.74-1.13,2.02-1.71,2.94-1.66c1.51,0.09,2.5,1.8,4.2,4.85
		c1.86,3.32,2.79,4.99,2.68,6.79c-0.17,2.67-1.9,4.83-2.69,5.81c-1.49,1.86-2.77,2.41-3.35,4.43c-0.16,0.57-0.61,2.11,0.21,2.87
		c0.66,0.62,1.92,0.53,2.77,0.06c1.29-0.72,1.1-2.05,2.14-4.39c0.64-1.44,1.72-3.86,3.99-4.92c1.51-0.7,3.95-0.99,5.29,0.23
		c0.73,0.66,0.75,1.42,0.77,6.73c0.02,4.97,0,5.33-0.34,5.99c-1.12,2.22-3.76,3.85-6.11,4.45c-1.9,0.49-3.43,0.26-4.25,1.45
		c-0.05,0.07-0.69,1.03-0.32,1.99c0.31,0.79,1.21,1.33,2.03,1.33c1.3,0,1.52-1.34,3.48-2.31c0.53-0.26,2.39-1.19,3.58-0.45
		c1.46,0.9,0.97,3.71,0.92,3.99c-0.49,2.64-2.8,4.66-5.07,5.28c-0.35,0.1-0.65,0.14-0.85,0.17c-10.36,4.51-15.58,3.7-18.44,1.96
		c-1.47-0.89-3.99-3.05-8.04-3.52c-2.24-0.26-2.95,0.23-4.83-0.02c-0.76-0.1-6.63-1.07-8.4-5.36c-0.18-0.45-0.81-2.03-0.31-3.88
		c0.51-1.89,2.14-3.88,4.07-4.07c1.29-0.13,2.61,0.54,3.37,0.93c1.35,0.69,1.9,1.4,2.62,1.18c0.58-0.18,0.98-0.87,1.06-1.47
		c0.15-1.14-0.83-1.93-2.09-3.53c-0.86-1.1-1.49-2.35-2.26-3.52c-2.03-3.11-4.68-11.38-0.91-15.74
		C273.44,124.61,276.08,123.18,278.33,123.83z"/>
	<path class="st3" d="M248.71,300.5l28.59,24.13l1.42-0.2l-0.41-7.91l-2.43-9.94l-0.41-5.07l8.72-4.06l2.43-0.41l4.06,8.72
		l-6.49,4.66l-2.43,8.31l1.82,7.71l4.46,7.71l11.56,4.46l5.68,3.45l1.22,16.02l2.23-1.22l7.91-8.92h21.9l-30.21,37.11v1.42
		l5.47-3.04l0.81,2.23l-2.64,4.26l-0.41,11.56l3.85,6.08l-9.33,13.99l1.22,20.28l4.26,16.42l6.69,20.68l6.49,20.28l2.43,16.02
		l2.84,15.21l3.65,11.35l2.84,5.88l4.26,5.88l5.47,7.3l7.1,7.3l11.15,7.71l6.08,6.49l11.35,4.66l19.26,5.47l20.48,4.46l17.44,4.26
		l23.72,2.84l19.87,3.45l26.36,2.23l22.3,2.64h12.98l5.27,0.61l4.66,2.23l1.82,2.64l-6.49,1.82l-12.57,2.23l-37.71,0.41l-29.4-1.82
		l-36.7-6.08l-19.47,0.61L394.5,616l-4.46,1.62l0.41,2.43l9.12,1.22l8.92,2.43l7.71,3.45l7.71,3.45l12.17,1.62l10.95,0.81l3.45,2.03
		l-11.96,1.01h-29.4l-14.4-1.62l-11.96-3.85l-12.17-8.11l-4.87-3.85l-7.3-0.61l-7.71-4.06l-6.29-3.04l-4.87-2.23l-2.64,2.84
		l-7.1,13.59l-7.1,7.1l-6.29,7.5l-5.68,5.88c0,0-3.45,2.84-4.26,2.84c-0.81,0-7.91,1.62-7.91,1.62l-5.68-2.03l2.03-3.85l4.16-3.55
		l7.5-6.49l4.76-4.36l2.84-5.68l2.33-3.45l1.12-3.14l-2.53-2.13l-6.49,1.72l-4.76,4.16l-3.95,2.13l-3.85-0.1l0.71-2.03l1.22-0.71
		l-0.81-2.94l-7.3-0.61l-9.02,1.01l-11.76,3.55l-12.77,1.52l-11.05,2.33l-7.1,1.12l-7.1,2.13l-6.18,1.22l-4.46,1.82l-5.58,0.2
		l-1.22-2.84l4.26-1.52l8.72-4.76l7.71-4.16l8.41-2.84l4.46-2.43l4.26-2.33l3.35-2.33l0.3-2.33l-3.65-0.41l-8.41,1.12l-8.41,3.14
		l-8.31,3.85l-13.08,4.46l-6.59,2.23l-7.81,0.2c0,0-4.46,0.91-4.76,1.01c-0.3,0.1-3.75,2.43-3.75,2.43l-3.45-1.42l1.82-2.94
		c0,0,3.14-5.27,3.65-5.58s5.78-3.35,5.78-3.35l-4.56-0.2l-7.5,2.13l-20.28,3.35l-18.25,3.65l-16.32,2.43l-16.53,2.33l-13.99,1.42
		l-10.44-0.91l-1.82-3.45l6.29-1.72l9.53-3.14l11.46-2.23l13.28-2.33l18.45-0.71l18.05-0.81l15.71-3.45l19.97-5.58l17.64-6.69
		l19.97-7.6c0,0,11.86-7.4,12.57-7.6s12.27-10.24,12.27-10.24l12.37-13.89l6.08-15.92l1.82-11.76l0.41-19.36l-0.3-75.23l1.93-38.53
		l-2.74-2.53l-2.84-3.75l-1.32-4.16l2.53-5.07l2.13-6.89l2.23-4.16l2.53-3.85l0.51-19.67l-1.22-5.07l-3.45-4.06l-4.06-5.07
		l-2.84-1.72h-7.6l-5.47-2.13l-12.98-0.61l-13.48-10.65l-9.83-5.17l6.79-4.26l9.02-4.06L248.71,300.5z"/>
	<polygon class="st3" points="355.7,301.92 377.33,279.34 381.65,279.34 382.2,284.62 382.87,291.78 384.76,296.78 383.41,300.03 
		356.51,328.41 351.1,333.01 350.29,329.5 355.7,323.41 	"/>
	<polygon class="st3" points="291.63,290.97 303.12,279.89 307.31,277.72 310.28,272.99 311.09,269.88 296.09,269.88 291.36,289.48 
			"/>
	<polygon class="st3" points="397.74,264.07 404.23,255.55 411.8,247.58 420.45,239.33 428.02,233.39 435.32,244.47 439.24,251.36 
		427.75,262.45 410.85,263.39 402.34,269.34 398.28,268.67 	"/>
	<polygon class="st3" points="335.02,234.87 342.99,225.82 349.89,214.6 354.08,205.27 354.75,201.48 347.59,196.21 339.89,200.13 
		335.56,202.7 334.21,194.72 326.23,209.19 327.31,223.79 	"/>
	<polygon class="st3" points="261.89,256.91 263.78,247.04 259.32,238.79 249.32,226.9 251.35,234.33 253.78,245.01 	"/>
	<path class="st3" d="M171.19,275.09l9.67,21.7c0,0,6.42,0.07,6.62,0.07c0.2,0,5.07,0,5.07,0l4.19,4.19l4.19,0.27l1.62-2.97v-3.38
		l-10-8.99l-2.77-8.11l-9.6-1.76l-9.06-1.28L171.19,275.09z"/>
	<polygon class="st3" points="193.25,353.83 225.09,354.23 228.64,362.14 230.56,364.47 226.3,372.08 215.76,372.28 	"/>
	<polygon class="st3" points="144.89,361.33 156.05,359.3 165.37,357.68 169.43,358.08 176.02,362.85 161.72,379.17 152.7,380.39 
		144.89,366.6 	"/>
	<polygon class="st3" points="364.22,360.32 386.12,360.32 386.12,378.56 377.87,377.89 364.49,366.94 	"/>
	<path class="st3" d="M431.53,400.06l6.49-5.54c0,0,0-4.06,0.41-4.33c0.41-0.27,11.22-3.92,11.22-3.92l36.09,20.41l-6.35,4.19
		l-3.24,6.49l-1.49,5l-3.11,7.3l-13.11-11.9l-16.22-10.81L431.53,400.06z"/>
</g>
</svg>
