<?xml version="1.0" encoding="utf-8"?>
<!-- Generator: Adobe Illustrator 27.0.0, SVG Export Plug-In . SVG Version: 6.00 Build 0)  -->
<svg version="1.1" id="Layer_1" xmlns="http://www.w3.org/2000/svg" xmlns:xlink="http://www.w3.org/1999/xlink" x="0px" y="0px"
	 viewBox="0 0 595.28 841.89" style="enable-background:new 0 0 595.28 841.89;" xml:space="preserve">
<style type="text/css">
	.st0{fill:#939598;}
	.st1{font-family:'UtopiaStd-Subh';}
	.st2{font-size:20.6304px;}
	.st3{fill:#7D2453;}
	.st4{fill:#9BC1A9;}
	.st5{fill:#8BAEA1;}
	.st6{fill:#BCBDC0;}
	.st7{fill:#BCBDC0;stroke:#939598;stroke-width:2;stroke-miterlimit:10;}
	.st8{fill:#999999;stroke:#9A9C9D;stroke-width:0.5;stroke-miterlimit:10;}
	.st9{font-size:18px;}
	.st10{letter-spacing:3.64;}
	.st11{letter-spacing:1.82;}
	.st12{letter-spacing:0.91;}
</style>
<g>
	<text transform="matrix(1.0228 0 0 1 380.0054 352.8099)" class="st0 st1 st2">DEMENTIA CARE</text>
	<path class="st3" d="M123.82,239.41c2.25-0.87,4.6,0.53,6.18,1.47c0.42,0.25,2.59,1.58,4.24,4.29c0.86,1.42,1.95,3.22,1.71,5.59
		c-0.19,1.8-1.05,3.05-1.47,3.65c-1.51,2.14-3.6,2.96-4.59,3.35c-0.58,0.23-1.52,0.59-2.82,0.71c-0.99,0.09-2.71,0.23-4.41-0.76
		c-1.63-0.96-2.33-2.43-2.59-3c-0.66-1.43-0.62-2.66-0.53-5.06c0.1-2.65,0.16-4.15,0.94-6
		C121.14,242.07,121.95,240.14,123.82,239.41z"/>
	<path class="st4" d="M119.92,232.38c0.37-0.91,1.34-1.38,1.76-1.59c0.71-0.35,1.34-0.42,1.99-0.49c0.91-0.1,1.09,0.02,2.74-0.04
		c0.86-0.03,1.34-0.09,1.76-0.44c0.08-0.06,0.57-0.47,0.49-0.88c-0.05-0.29-0.36-0.51-0.97-0.71c-1.51-0.49-2.58-0.08-4.81-0.04
		c-1.23,0.02-1.85,0.03-2.21-0.22c-0.92-0.65-0.48-1.71-1.59-3.84c-0.49-0.95-0.78-1.12-0.71-1.59c0.13-0.77,1.06-1.18,2.74-1.9
		c1.82-0.78,2.73-1.17,3.66-1.01c1.37,0.22,2.4,1.22,2.87,1.68c0.88,0.86,1.1,1.54,2.12,1.94c0.28,0.11,1.06,0.42,1.5,0.04
		c0.36-0.3,0.38-0.95,0.18-1.41c-0.31-0.7-1-0.67-2.16-1.32c-0.71-0.4-1.91-1.08-2.34-2.29c-0.29-0.81-0.3-2.07,0.4-2.69
		c0.38-0.34,0.78-0.31,3.53-0.04c2.58,0.25,2.76,0.28,3.09,0.49c1.09,0.69,1.8,2.12,1.99,3.35c0.15,1-0.05,1.77,0.53,2.25
		c0.03,0.03,0.5,0.41,1.01,0.26c0.43-0.12,0.75-0.55,0.79-0.97c0.07-0.66-0.61-0.85-1.01-1.9c-0.11-0.29-0.49-1.28-0.04-1.85
		c0.55-0.7,1.98-0.31,2.12-0.26c1.34,0.39,2.27,1.67,2.47,2.87c0.03,0.18,0.04,0.34,0.04,0.44c1.79,5.53,1.1,8.16,0.04,9.53
		c-0.54,0.71-1.79,1.88-2.25,3.93c-0.25,1.13-0.04,1.52-0.26,2.47c-0.09,0.38-0.9,3.34-3.22,4.01c-0.24,0.07-1.09,0.31-2.03-0.04
		c-0.95-0.36-1.9-1.29-1.9-2.29c0-0.67,0.42-1.3,0.66-1.68c0.43-0.65,0.83-0.9,0.75-1.28c-0.06-0.31-0.4-0.55-0.71-0.62
		c-0.58-0.14-1.05,0.32-1.94,0.88c-0.61,0.38-1.3,0.64-1.94,0.97c-1.72,0.88-6.15,1.8-8.21-0.35
		C120.06,234.92,119.46,233.49,119.92,232.38z"/>
	<path class="st5" d="M100.51,253.75c-0.49-0.85-0.26-1.91-0.17-2.37c0.16-0.78,0.5-1.31,0.84-1.86c0.48-0.78,0.69-0.85,1.65-2.18
		c0.5-0.7,0.75-1.11,0.74-1.66c0-0.1-0.02-0.73-0.4-0.93c-0.26-0.13-0.63-0.03-1.15,0.33c-1.31,0.89-1.65,1.98-2.99,3.76
		c-0.74,0.98-1.11,1.48-1.53,1.6c-1.08,0.33-1.65-0.67-4-1.11c-1.05-0.19-1.37-0.08-1.69-0.42c-0.53-0.57-0.28-1.57,0.19-3.32
		c0.51-1.91,0.76-2.87,1.45-3.51c1.02-0.95,2.44-1.14,3.09-1.23c1.22-0.17,1.89,0.08,2.83-0.47c0.26-0.15,0.98-0.58,0.96-1.16
		c-0.02-0.47-0.52-0.88-1-1.01c-0.74-0.19-1.15,0.38-2.37,0.89c-0.75,0.31-2.02,0.84-3.25,0.43c-0.81-0.27-1.82-1.04-1.88-1.97
		c-0.03-0.51,0.23-0.8,2.14-2.81c1.78-1.88,1.92-2.01,2.28-2.14c1.21-0.43,2.78-0.11,3.86,0.5c0.88,0.49,1.36,1.12,2.1,0.97
		c0.04-0.01,0.63-0.14,0.83-0.64c0.17-0.41,0.03-0.93-0.28-1.22c-0.48-0.46-1.04-0.04-2.12-0.37c-0.29-0.09-1.31-0.4-1.49-1.11
		c-0.21-0.86,0.98-1.75,1.09-1.83c1.13-0.82,2.71-0.76,3.78-0.18c0.16,0.09,0.29,0.18,0.37,0.24c5.46,1.99,7.1,4.16,7.54,5.83
		c0.22,0.86,0.38,2.57,1.71,4.19c0.74,0.9,1.17,0.97,1.78,1.73c0.25,0.31,2.07,2.76,1.18,5.01c-0.09,0.23-0.43,1.05-1.28,1.57
		c-0.87,0.53-3.55,4.46-3.66,1.3c-0.02-0.66-0.09-2.35-0.23-2.77c-0.25-0.74-0.2-1.2-0.55-1.38c-0.28-0.14-0.68-0.02-0.92,0.18
		c-0.47,0.37-0.39,1.02-0.5,2.07c-0.08,0.72-0.29,1.42-0.43,2.13c-0.37,1.89-2.36,5.95-5.33,6.25
		C102.6,255.2,101.11,254.8,100.51,253.75z"/>
	<path class="st4" d="M65.19,248.77c-0.51-1.02-0.19-2.19-0.05-2.7c0.23-0.86,0.64-1.41,1.07-1.99c0.6-0.82,0.84-0.87,2.01-2.25
		c0.61-0.72,0.92-1.15,0.94-1.78c0-0.11,0.02-0.83-0.4-1.1c-0.29-0.18-0.71-0.11-1.34,0.22c-1.55,0.83-2,2.02-3.64,3.85
		c-0.91,1.01-1.36,1.52-1.84,1.61c-1.25,0.23-1.84-0.98-4.51-1.79c-1.19-0.36-1.56-0.27-1.9-0.7c-0.57-0.72-0.23-1.81,0.41-3.73
		c0.69-2.09,1.04-3.14,1.86-3.77c1.22-0.93,2.86-0.96,3.6-0.98c1.41-0.03,2.16,0.34,3.26-0.16c0.31-0.14,1.16-0.52,1.16-1.18
		c0-0.53-0.54-1.07-1.09-1.27c-0.83-0.31-1.33,0.28-2.76,0.69c-0.88,0.25-2.36,0.68-3.73,0.06c-0.91-0.42-2.02-1.41-2.03-2.47
		c-0.01-0.58,0.31-0.88,2.6-2.89c2.15-1.89,2.31-2.01,2.73-2.11c1.41-0.33,3.18,0.24,4.38,1.08c0.97,0.67,1.49,1.45,2.34,1.37
		c0.05,0,0.72-0.08,0.99-0.61c0.22-0.44,0.09-1.05-0.24-1.42c-0.52-0.59-1.19-0.18-2.4-0.7c-0.33-0.14-1.48-0.63-1.63-1.45
		c-0.2-1,1.22-1.84,1.36-1.92c1.34-0.78,3.14-0.5,4.33,0.3c0.18,0.12,0.32,0.24,0.41,0.32c6.12,2.98,7.87,5.64,8.27,7.59
		c0.2,1,0.29,2.95,1.71,4.96c0.79,1.11,1.28,1.25,1.94,2.19c0.26,0.38,2.21,3.4,1.06,5.82c-0.12,0.25-0.55,1.13-1.56,1.61
		c-1.02,0.48-2.54,0.5-3.4-0.3c-0.57-0.53-0.81-1.38-0.95-1.88c-0.24-0.87-0.16-1.39-0.54-1.63c-0.31-0.2-0.77-0.11-1.06,0.08
		c-0.56,0.36-0.5,1.11-0.69,2.28c-0.13,0.8-0.42,1.56-0.61,2.35c-0.53,2.09-3.05,6.41-6.45,6.35
		C67.49,250.68,65.81,250.03,65.19,248.77z"/>
	<path class="st5" d="M82.63,218.32c0.37-0.91,1.34-1.38,1.76-1.59c0.71-0.35,1.34-0.42,1.99-0.49c0.91-0.1,1.09,0.02,2.74-0.04
		c0.86-0.03,1.34-0.09,1.76-0.44c0.08-0.06,0.57-0.47,0.49-0.88c-0.05-0.29-0.36-0.51-0.97-0.71c-1.51-0.49-2.58-0.08-4.81-0.04
		c-1.23,0.02-1.85,0.03-2.21-0.22c-0.92-0.65-0.48-1.71-1.59-3.84c-0.49-0.95-0.78-1.12-0.71-1.59c0.13-0.77,1.06-1.18,2.74-1.9
		c1.82-0.78,2.73-1.17,3.66-1.01c1.37,0.22,2.4,1.22,2.87,1.68c0.88,0.86,1.1,1.54,2.12,1.94c0.28,0.11,1.06,0.42,1.5,0.04
		c0.36-0.3,0.38-0.95,0.18-1.41c-0.31-0.7-1-0.67-2.16-1.32c-0.71-0.4-1.91-1.08-2.34-2.29c-0.29-0.81-0.3-2.07,0.4-2.69
		c0.38-0.34,0.78-0.31,3.53-0.04c2.58,0.25,2.76,0.28,3.09,0.49c1.09,0.69,1.8,2.12,1.99,3.35c0.15,1-0.05,1.77,0.53,2.25
		c0.03,0.03,0.5,0.41,1.01,0.26c0.43-0.12,0.75-0.55,0.79-0.97c0.07-0.66-0.61-0.85-1.01-1.9c-0.11-0.29-0.49-1.28-0.04-1.85
		c0.55-0.7,1.98-0.31,2.12-0.26c1.34,0.39,2.27,1.67,2.47,2.87c0.03,0.18,0.04,0.34,0.04,0.44c0.15,5.53,1.1,8.16,0.04,9.53
		c-0.54,0.71-1.79,1.88-2.25,3.93c-0.25,1.13-0.04,1.52-0.26,2.47c-0.09,0.38-0.9,3.34-3.22,4.01c-0.24,0.07-1.09,0.31-2.03-0.04
		c-0.95-0.36-1.9-1.29-1.9-2.29c0-0.67,0.42-1.3,0.66-1.68c0.43-0.65,0.83-0.9,0.75-1.28c-0.06-0.31-0.4-0.55-0.71-0.62
		c-0.58-0.14-1.05,0.32-1.94,0.88c-0.61,0.38-1.3,0.64-1.94,0.97c-1.72,0.88-6.15,1.8-8.21-0.35
		C82.77,220.86,82.17,219.44,82.63,218.32z"/>
	<path class="st5" d="M116.65,279.14c-0.84-0.12-1.46-0.85-1.73-1.17c-0.45-0.54-0.65-1.06-0.86-1.61
		c-0.29-0.77-0.23-0.95-0.67-2.36c-0.23-0.73-0.38-1.14-0.77-1.43c-0.07-0.05-0.52-0.39-0.85-0.22c-0.23,0.11-0.34,0.43-0.37,1
		c-0.06,1.41,0.53,2.25,1.07,4.17c0.3,1.06,0.45,1.59,0.32,1.96c-0.33,0.94-1.32,0.8-2.83,2.23c-0.68,0.64-0.76,0.93-1.16,0.96
		c-0.67,0.06-1.23-0.66-2.21-1.94c-1.07-1.4-1.6-2.1-1.69-2.94c-0.13-1.24,0.47-2.35,0.74-2.85c0.51-0.96,1.03-1.3,1.13-2.26
		c0.03-0.27,0.11-1.01-0.31-1.31c-0.34-0.24-0.88-0.11-1.22,0.16c-0.51,0.42-0.33,1.02-0.61,2.16c-0.17,0.7-0.46,1.89-1.37,2.53
		c-0.61,0.43-1.66,0.72-2.34,0.25c-0.37-0.25-0.44-0.6-0.85-3.04c-0.38-2.29-0.4-2.45-0.31-2.78c0.32-1.1,1.36-2.02,2.34-2.46
		c0.79-0.35,1.48-0.35,1.75-0.96c0.02-0.04,0.23-0.52-0.01-0.94c-0.2-0.34-0.63-0.53-0.99-0.47c-0.57,0.09-0.56,0.72-1.35,1.3
		c-0.21,0.16-0.96,0.71-1.53,0.45c-0.71-0.32-0.71-1.64-0.71-1.77c0.01-1.25,0.87-2.33,1.82-2.77c0.15-0.07,0.27-0.11,0.36-0.14
		c4.2-2.78,6.55-2.76,7.94-2.15c0.71,0.31,1.98,1.13,3.79,1.07c1-0.03,1.28-0.3,2.12-0.32c0.34-0.01,2.99,0.04,4.09,1.89
		c0.11,0.19,0.51,0.88,0.43,1.77c-0.08,0.91-0.64,1.93-1.48,2.15c-0.55,0.15-1.18-0.07-1.55-0.2c-0.64-0.22-0.94-0.52-1.24-0.36
		c-0.24,0.12-0.36,0.47-0.35,0.75c0.02,0.54,0.51,0.83,1.18,1.48c0.46,0.45,0.83,0.98,1.26,1.46c1.13,1.29,2.91,4.92,1.6,7.18
		C118.73,278.45,117.69,279.29,116.65,279.14z"/>
	<path class="st4" d="M75.42,275.54c-0.52-0.69-0.44-1.65-0.4-2.08c0.06-0.71,0.29-1.23,0.53-1.76c0.34-0.76,0.51-0.85,1.2-2.16
		c0.36-0.68,0.54-1.09,0.46-1.57c-0.01-0.09-0.1-0.65-0.45-0.77c-0.24-0.08-0.55,0.06-0.97,0.45c-1.05,0.96-1.23,1.98-2.21,3.74
		c-0.54,0.97-0.81,1.46-1.16,1.63c-0.91,0.44-1.51-0.37-3.62-0.44c-0.94-0.03-1.2,0.12-1.52-0.14c-0.52-0.43-0.41-1.35-0.2-2.97
		c0.24-1.76,0.35-2.65,0.89-3.31c0.79-0.98,2.01-1.34,2.57-1.51c1.05-0.32,1.66-0.19,2.43-0.81c0.21-0.17,0.8-0.64,0.71-1.15
		c-0.07-0.41-0.55-0.71-0.99-0.76c-0.67-0.07-0.96,0.49-1.98,1.11c-0.62,0.38-1.68,1.02-2.79,0.82c-0.74-0.13-1.7-0.67-1.86-1.49
		c-0.08-0.45,0.11-0.74,1.56-2.78c1.36-1.91,1.46-2.04,1.76-2.2c1.01-0.55,2.42-0.48,3.44-0.08c0.82,0.32,1.32,0.81,1.94,0.57
		c0.04-0.01,0.53-0.21,0.66-0.68c0.1-0.39-0.08-0.83-0.38-1.05c-0.47-0.34-0.92,0.11-1.89-0.04c-0.27-0.04-1.19-0.18-1.42-0.78
		c-0.28-0.73,0.66-1.68,0.76-1.77c0.9-0.88,2.29-1.04,3.29-0.68c0.15,0.06,0.27,0.12,0.35,0.16c5,1.02,6.67,2.71,7.23,4.14
		c0.29,0.73,0.61,2.22,1.95,3.48c0.74,0.69,1.13,0.7,1.75,1.29c0.25,0.24,2.12,2.17,1.58,4.28c-0.06,0.22-0.26,0.99-0.95,1.57
		c-0.7,0.59-1.84,0.92-2.59,0.48c-0.5-0.29-0.8-0.9-0.97-1.25c-0.3-0.62-0.3-1.04-0.63-1.15c-0.26-0.09-0.59,0.07-0.79,0.28
		c-0.37,0.4-0.23,0.96-0.21,1.9c0.01,0.65-0.1,1.29-0.14,1.94c-0.11,1.73-1.42,5.59-3.98,6.26
		C77.41,276.54,76.06,276.39,75.42,275.54z"/>
	<path class="st5" d="M70.33,187.23c0.54-0.82,1.59-1.09,2.04-1.21c0.77-0.2,1.39-0.14,2.04-0.09c0.91,0.08,1.07,0.24,2.69,0.49
		c0.85,0.13,1.33,0.18,1.82-0.09c0.09-0.05,0.65-0.35,0.65-0.77c0-0.29-0.26-0.57-0.81-0.88c-1.38-0.78-2.51-0.59-4.71-0.99
		c-1.21-0.22-1.82-0.33-2.12-0.65c-0.78-0.82-0.14-1.77-0.8-4.08c-0.3-1.02-0.55-1.26-0.38-1.7c0.27-0.73,1.28-0.95,3.05-1.32
		c1.94-0.4,2.91-0.61,3.79-0.27c1.3,0.49,2.11,1.67,2.48,2.21c0.7,1.02,0.78,1.73,1.69,2.32c0.26,0.17,0.96,0.62,1.46,0.34
		c0.41-0.23,0.56-0.86,0.45-1.35c-0.16-0.74-0.85-0.86-1.86-1.72c-0.62-0.53-1.66-1.43-1.84-2.71c-0.12-0.85,0.11-2.09,0.92-2.56
		c0.44-0.26,0.82-0.15,3.47,0.65c2.48,0.75,2.65,0.82,2.93,1.08c0.93,0.89,1.34,2.43,1.29,3.68c-0.05,1.01-0.39,1.72,0.08,2.31
		c0.03,0.03,0.41,0.5,0.94,0.46c0.44-0.03,0.84-0.39,0.97-0.8c0.2-0.64-0.44-0.95-0.62-2.06c-0.05-0.3-0.23-1.35,0.32-1.83
		c0.67-0.58,2,0.09,2.13,0.16c1.24,0.64,1.89,2.09,1.86,3.3c-0.01,0.19-0.03,0.34-0.04,0.44c0.67,5.78-0.53,8.21-1.83,9.35
		c-0.67,0.59-2.13,1.49-2.98,3.41c-0.47,1.06-0.34,1.48-0.75,2.37c-0.17,0.36-1.54,3.09-3.95,3.3c-0.25,0.02-1.13,0.09-1.98-0.44
		c-0.87-0.54-1.61-1.64-1.41-2.62c0.13-0.65,0.67-1.2,0.98-1.51c0.55-0.56,0.99-0.72,0.99-1.11c0-0.31-0.28-0.61-0.57-0.74
		c-0.54-0.25-1.09,0.11-2.08,0.48c-0.68,0.25-1.4,0.37-2.09,0.57c-1.86,0.52-6.38,0.56-7.98-1.96
		C69.98,189.75,69.67,188.23,70.33,187.23z"/>
	<path class="st4" d="M44.38,207.07c0.35-0.96,1.37-1.5,1.81-1.73c0.75-0.4,1.41-0.5,2.1-0.6c0.97-0.15,1.17-0.03,2.92-0.19
		c0.91-0.08,1.43-0.16,1.87-0.55c0.08-0.07,0.58-0.51,0.48-0.94c-0.07-0.29-0.42-0.51-1.07-0.68c-1.64-0.43-2.76,0.05-5.15,0.2
		c-1.32,0.08-1.98,0.13-2.37-0.11c-1.02-0.62-0.6-1.74-1.89-3.88c-0.57-0.95-0.89-1.12-0.83-1.6c0.1-0.8,1.08-1.28,2.83-2.1
		c1.91-0.9,2.86-1.34,3.87-1.24c1.48,0.16,2.63,1.14,3.15,1.58c0.99,0.84,1.26,1.53,2.36,1.9c0.31,0.1,1.15,0.38,1.61-0.03
		c0.37-0.33,0.36-1.01,0.12-1.47c-0.36-0.71-1.11-0.64-2.38-1.26c-0.78-0.38-2.1-1.02-2.62-2.25c-0.35-0.82-0.43-2.12,0.29-2.8
		c0.39-0.37,0.81-0.36,3.77-0.23c2.77,0.13,2.97,0.15,3.33,0.34c1.2,0.66,2.03,2.1,2.29,3.36c0.21,1.02,0.04,1.83,0.68,2.3
		c0.04,0.03,0.55,0.4,1.1,0.22c0.45-0.14,0.78-0.61,0.8-1.04c0.04-0.69-0.7-0.84-1.18-1.91c-0.13-0.29-0.59-1.3-0.14-1.91
		c0.55-0.75,2.1-0.42,2.25-0.38c1.46,0.33,2.51,1.61,2.79,2.84c0.04,0.19,0.06,0.35,0.07,0.45c2.19,5.62,1.58,8.37,0.52,9.84
		c-0.54,0.76-1.82,2.04-2.21,4.17c-0.22,1.18,0.03,1.57-0.16,2.57c-0.08,0.4-0.8,3.49-3.25,4.31c-0.25,0.09-1.15,0.37-2.17,0.06
		c-1.04-0.32-2.1-1.24-2.14-2.27c-0.03-0.69,0.38-1.37,0.62-1.77c0.42-0.7,0.84-0.97,0.74-1.36c-0.08-0.31-0.45-0.54-0.79-0.6
		c-0.63-0.11-1.12,0.36-2.03,1.01c-0.48,0.34-0.67,0.8-1.42,1.82c-1.77,2.38-6.71,2.22-9.4-0.66
		C44.73,209.62,43.95,208.25,44.38,207.07z"/>
	<path class="st5" d="M28.63,233.28c0.03-0.92,0.73-1.65,1.04-1.96c0.51-0.54,1.04-0.8,1.59-1.07c0.77-0.38,0.97-0.33,2.39-0.92
		c0.74-0.31,1.15-0.51,1.41-0.96c0.05-0.08,0.35-0.59,0.14-0.93c-0.14-0.23-0.48-0.33-1.08-0.31c-1.48,0.06-2.29,0.76-4.24,1.52
		c-1.08,0.42-1.61,0.62-2.01,0.52c-1.02-0.27-0.98-1.35-2.64-2.85c-0.74-0.67-1.05-0.73-1.13-1.16c-0.14-0.71,0.55-1.38,1.79-2.55
		c1.35-1.27,2.02-1.91,2.89-2.08c1.28-0.25,2.51,0.3,3.06,0.54c1.06,0.47,1.47,0.99,2.49,1.02c0.29,0.01,1.07,0.03,1.33-0.45
		c0.21-0.38,0.02-0.96-0.3-1.3c-0.49-0.51-1.1-0.26-2.33-0.46c-0.75-0.12-2.03-0.33-2.8-1.26c-0.51-0.62-0.93-1.72-0.52-2.49
		c0.22-0.42,0.58-0.52,3.09-1.18c2.35-0.61,2.52-0.65,2.87-0.57c1.18,0.25,2.26,1.28,2.83,2.3c0.46,0.82,0.53,1.56,1.19,1.8
		c0.04,0.01,0.57,0.2,0.98-0.1c0.34-0.24,0.48-0.73,0.38-1.11c-0.15-0.6-0.81-0.54-1.5-1.34c-0.19-0.22-0.84-0.97-0.64-1.61
		c0.25-0.79,1.64-0.91,1.77-0.92c1.3-0.1,2.53,0.73,3.1,1.72c0.09,0.15,0.15,0.28,0.18,0.37c3.36,4.27,3.6,6.8,3.12,8.34
		c-0.25,0.79-0.96,2.23-0.71,4.17c0.14,1.08,0.46,1.35,0.57,2.25c0.04,0.37,0.28,3.22-1.53,4.56c-0.19,0.14-0.86,0.62-1.8,0.62
		c-0.95-0.01-2.09-0.52-2.41-1.4c-0.21-0.58-0.05-1.28,0.04-1.68c0.16-0.71,0.44-1.05,0.25-1.36c-0.15-0.25-0.53-0.35-0.82-0.31
		c-0.56,0.07-0.81,0.62-1.42,1.4c-0.42,0.53-0.93,0.98-1.39,1.48c-1.23,1.32-4.82,3.57-7.32,2.35
		C29.58,235.46,28.59,234.41,28.63,233.28z"/>
	<path class="st5" d="M41.31,265.79c-0.62-0.65-0.66-1.67-0.67-2.11c-0.02-0.75,0.15-1.31,0.34-1.9c0.26-0.83,0.43-0.94,0.99-2.39
		c0.29-0.76,0.43-1.2,0.29-1.69c-0.02-0.09-0.18-0.66-0.56-0.74c-0.26-0.06-0.57,0.13-0.96,0.58c-0.98,1.13-1.04,2.21-1.85,4.16
		c-0.45,1.08-0.67,1.62-1.02,1.83c-0.89,0.56-1.62-0.21-3.83-0.02c-0.98,0.08-1.24,0.27-1.6,0.03c-0.6-0.39-0.6-1.36-0.57-3.07
		c0.03-1.87,0.05-2.8,0.53-3.55c0.71-1.11,1.94-1.64,2.49-1.88c1.06-0.45,1.71-0.39,2.43-1.13c0.2-0.21,0.75-0.77,0.6-1.29
		c-0.12-0.42-0.66-0.68-1.12-0.67c-0.7,0.01-0.94,0.63-1.93,1.39c-0.61,0.47-1.63,1.26-2.81,1.19c-0.79-0.05-1.86-0.49-2.12-1.33
		c-0.14-0.45,0.03-0.79,1.29-3.08c1.18-2.15,1.28-2.3,1.57-2.5c0.99-0.69,2.46-0.78,3.57-0.5c0.9,0.23,1.47,0.69,2.09,0.36
		c0.04-0.02,0.53-0.28,0.61-0.78c0.06-0.41-0.18-0.85-0.52-1.04c-0.53-0.3-0.94,0.22-1.98,0.19c-0.28-0.01-1.26-0.04-1.58-0.64
		c-0.38-0.73,0.49-1.83,0.58-1.94c0.83-1.03,2.26-1.36,3.35-1.1c0.17,0.04,0.3,0.09,0.39,0.12c5.34,0.47,7.28,2.03,8.04,3.45
		c0.39,0.73,0.91,2.24,2.46,3.39c0.86,0.64,1.26,0.59,1.98,1.13c0.29,0.22,2.47,2,2.17,4.26c-0.03,0.24,0.55,2.25-0.1,2.93
		c-0.66,0.7-2.51-0.01-3.35-0.38c-0.56-0.24-0.94-0.84-1.16-1.19c-0.39-0.61-0.44-1.05-0.79-1.12c-0.28-0.06-0.61,0.15-0.79,0.39
		c-0.34,0.46-0.12,1.03,0.01,2.01c0.09,0.67,0.05,1.36,0.09,2.04c0.09,1.81-0.8,5.99-3.39,7C43.5,266.59,42.08,266.6,41.31,265.79z"
		/>
	<path class="st4" d="M105.01,185.24c0.99-0.32,2.08,0.16,2.56,0.37c0.8,0.35,1.31,0.83,1.84,1.32c0.75,0.69,0.78,0.93,2.04,2.26
		c0.66,0.69,1.05,1.06,1.65,1.17c0.11,0.02,0.78,0.15,1.06-0.21c0.19-0.24,0.14-0.66-0.15-1.3c-0.72-1.6-1.83-2.21-3.5-4.05
		c-0.92-1.02-1.38-1.53-1.44-2c-0.16-1.22,1-1.6,1.88-4c0.39-1.07,0.32-1.44,0.74-1.7c0.7-0.43,1.72,0.07,3.51,0.97
		c1.95,0.98,2.93,1.47,3.49,2.36c0.83,1.3,0.79,2.86,0.78,3.57c-0.03,1.34-0.41,1.99,0.02,3.12c0.12,0.32,0.44,1.18,1.07,1.29
		c0.5,0.09,1.03-0.35,1.25-0.84c0.33-0.74-0.21-1.31-0.54-2.73c-0.2-0.87-0.55-2.35,0.1-3.55c0.43-0.8,1.42-1.69,2.43-1.54
		c0.55,0.08,0.82,0.43,2.63,2.92c1.69,2.33,1.81,2.51,1.88,2.92c0.25,1.39-0.36,2.98-1.2,3.99c-0.68,0.82-1.43,1.19-1.4,2.01
		c0,0.05,0.04,0.7,0.54,1.03c0.41,0.28,0.99,0.24,1.35-0.01c0.58-0.41,0.22-1.1,0.76-2.17c0.15-0.29,0.66-1.3,1.44-1.33
		c0.95-0.03,1.69,1.44,1.76,1.59c0.68,1.39,0.34,3.06-0.46,4.06c-0.12,0.15-0.24,0.27-0.32,0.34c-3.07,5.35-5.67,6.6-7.52,6.67
		c-0.96,0.04-2.81-0.19-4.77,0.85c-1.09,0.58-1.23,1.03-2.15,1.5c-0.37,0.19-3.31,1.57-5.55,0.1c-0.23-0.15-1.05-0.7-1.45-1.73
		c-0.42-1.05-0.37-2.49,0.43-3.18c0.53-0.46,1.34-0.56,1.82-0.61c0.83-0.1,1.32,0.07,1.57-0.26c0.2-0.27,0.14-0.71-0.03-1.02
		c-0.32-0.58-1.03-0.65-2.12-1.01c-0.75-0.25-1.46-0.64-2.19-0.95c-1.96-0.83-5.94-3.89-5.74-7.11
		C103.11,187.13,103.79,185.63,105.01,185.24z"/>
	<path class="st5" d="M147.95,159.82c0.77,0.69,0.89,1.83,0.94,2.32c0.09,0.83-0.07,1.48-0.23,2.15c-0.23,0.94-0.41,1.08-0.93,2.74
		c-0.27,0.87-0.39,1.37-0.19,1.92c0.04,0.1,0.26,0.73,0.7,0.8c0.3,0.05,0.63-0.18,1.04-0.72c1.02-1.33,1-2.54,1.76-4.78
		c0.42-1.24,0.63-1.85,1.01-2.12c0.97-0.69,1.86,0.13,4.36-0.23c1.11-0.16,1.39-0.38,1.82-0.14c0.71,0.4,0.79,1.48,0.9,3.4
		c0.12,2.09,0.18,3.14-0.3,4.01c-0.71,1.29-2.07,1.96-2.68,2.27c-1.17,0.58-1.91,0.56-2.67,1.42c-0.21,0.24-0.79,0.91-0.58,1.48
		c0.17,0.46,0.81,0.71,1.33,0.68c0.8-0.06,1.02-0.76,2.08-1.69c0.65-0.57,1.75-1.52,3.1-1.52c0.9,0,2.15,0.43,2.52,1.35
		c0.2,0.5,0.03,0.88-1.22,3.54c-1.17,2.48-1.26,2.66-1.58,2.91c-1.07,0.84-2.74,1.04-4.02,0.79c-1.04-0.2-1.73-0.67-2.41-0.27
		c-0.04,0.02-0.58,0.35-0.62,0.92c-0.04,0.47,0.28,0.94,0.68,1.14c0.63,0.3,1.05-0.31,2.24-0.34c0.32-0.01,1.44-0.03,1.85,0.61
		c0.5,0.79-0.4,2.08-0.49,2.21c-0.86,1.2-2.46,1.67-3.72,1.45c-0.19-0.03-0.35-0.08-0.45-0.11c-6.11-0.17-8.45-1.8-9.43-3.33
		c-0.5-0.79-1.22-2.45-3.08-3.63c-1.03-0.65-1.49-0.58-2.35-1.14c-0.35-0.23-2.97-2.08-2.82-4.63c0.02-0.27,0.09-1.2,0.77-2.01
		c0.7-0.82,1.96-1.44,2.94-1.08c0.66,0.24,1.14,0.88,1.42,1.25c0.49,0.66,0.59,1.14,1,1.2c0.33,0.05,0.68-0.21,0.86-0.49
		c0.34-0.53,0.05-1.16-0.18-2.25c-0.16-0.75-0.17-1.52-0.27-2.28c-0.25-2.02,0.42-6.77,3.28-8.06
		C145.39,159.07,147.01,158.97,147.95,159.82z"/>
	<path class="st5" d="M110.76,146.82c0.96-0.2,1.89,0.35,2.3,0.58c0.69,0.4,1.09,0.88,1.51,1.38c0.59,0.7,0.59,0.92,1.56,2.25
		c0.5,0.69,0.82,1.06,1.35,1.22c0.1,0.03,0.7,0.21,1-0.09c0.21-0.2,0.22-0.59,0.05-1.2c-0.43-1.53-1.37-2.19-2.64-4.02
		c-0.7-1.01-1.05-1.52-1.04-1.96c0.03-1.12,1.16-1.35,2.31-3.45c0.51-0.94,0.5-1.27,0.93-1.47c0.71-0.32,1.58,0.23,3.1,1.22
		c1.66,1.08,2.49,1.62,2.88,2.48c0.58,1.27,0.32,2.68,0.2,3.32c-0.22,1.21-0.67,1.77-0.44,2.84c0.06,0.3,0.24,1.11,0.8,1.27
		c0.45,0.13,1-0.22,1.27-0.64c0.41-0.64,0-1.21-0.1-2.53c-0.06-0.81-0.17-2.19,0.61-3.22c0.51-0.69,1.55-1.4,2.46-1.17
		c0.49,0.13,0.69,0.47,2,2.91c1.23,2.28,1.3,2.45,1.31,2.84c0.03,1.29-0.76,2.67-1.68,3.51c-0.74,0.68-1.49,0.94-1.58,1.69
		c0,0.04-0.06,0.64,0.34,0.99c0.34,0.29,0.88,0.32,1.25,0.12c0.59-0.31,0.36-0.98,1.01-1.9c0.18-0.25,0.79-1.12,1.52-1.07
		c0.88,0.06,1.35,1.47,1.4,1.61c0.43,1.33-0.13,2.81-1.01,3.65c-0.14,0.13-0.26,0.22-0.34,0.28c-3.6,4.57-6.17,5.45-7.9,5.34
		c-0.89-0.06-2.56-0.44-4.51,0.31c-1.08,0.42-1.28,0.81-2.2,1.15c-0.37,0.14-3.27,1.1-5.13-0.44c-0.19-0.16-0.86-0.74-1.09-1.71
		c-0.23-0.99,0.02-2.3,0.85-2.85c0.55-0.37,1.32-0.38,1.76-0.38c0.78-0.01,1.21,0.19,1.48-0.09c0.22-0.22,0.23-0.64,0.12-0.93
		c-0.21-0.56-0.85-0.69-1.81-1.12c-0.66-0.3-1.25-0.72-1.89-1.07c-1.68-0.94-4.91-4.11-4.27-7.02
		C108.73,148.35,109.58,147.06,110.76,146.82z"/>
	<path class="st4" d="M79.88,153.61c0.71-0.45,1.61-0.29,2.01-0.23c0.67,0.11,1.13,0.37,1.62,0.65c0.68,0.38,0.75,0.56,1.92,1.32
		c0.61,0.4,0.97,0.6,1.44,0.57c0.08-0.01,0.62-0.04,0.77-0.37c0.1-0.23,0-0.53-0.32-0.97c-0.8-1.09-1.75-1.33-3.31-2.41
		c-0.86-0.6-1.3-0.89-1.42-1.25c-0.32-0.9,0.51-1.43,0.8-3.45c0.13-0.9,0.01-1.17,0.3-1.45c0.47-0.47,1.32-0.29,2.84,0.04
		c1.65,0.36,2.47,0.54,3.04,1.11c0.84,0.84,1.06,2.04,1.16,2.58c0.19,1.03,0,1.61,0.51,2.39c0.14,0.22,0.53,0.82,1.02,0.77
		c0.4-0.03,0.73-0.48,0.82-0.89c0.13-0.63-0.36-0.96-0.84-1.99c-0.29-0.63-0.79-1.69-0.48-2.75c0.2-0.7,0.82-1.58,1.61-1.67
		c0.43-0.05,0.69,0.17,2.47,1.72c1.66,1.45,1.78,1.56,1.9,1.87c0.41,1.02,0.19,2.36-0.28,3.31c-0.39,0.77-0.91,1.2-0.75,1.82
		c0.01,0.04,0.14,0.53,0.57,0.69c0.35,0.13,0.79-0.01,1.03-0.28c0.38-0.43-0.01-0.89,0.24-1.82c0.07-0.25,0.3-1.13,0.89-1.31
		c0.72-0.21,1.52,0.77,1.6,0.87c0.74,0.93,0.74,2.28,0.29,3.21c-0.07,0.14-0.14,0.25-0.19,0.33c-1.5,4.72-3.28,6.2-4.69,6.63
		c-0.72,0.22-2.17,0.42-3.5,1.61c-0.74,0.66-0.78,1.03-1.41,1.58c-0.25,0.22-2.28,1.86-4.22,1.19c-0.2-0.07-0.91-0.33-1.38-1.04
		c-0.48-0.72-0.68-1.84-0.18-2.53c0.33-0.46,0.94-0.7,1.29-0.83c0.62-0.24,1.02-0.21,1.15-0.52c0.11-0.24-0.01-0.58-0.18-0.78
		c-0.34-0.38-0.89-0.29-1.78-0.35c-0.62-0.04-1.22-0.2-1.83-0.29c-1.62-0.24-5.15-1.8-5.51-4.31
		C78.73,155.44,79.02,154.16,79.88,153.61z"/>
	<path class="st5" d="M155.39,195.45c0.86,0.56,1.15,1.64,1.28,2.12c0.22,0.8,0.16,1.45,0.11,2.13c-0.08,0.95-0.24,1.11-0.49,2.81
		c-0.13,0.88-0.17,1.39,0.11,1.89c0.05,0.09,0.37,0.67,0.81,0.67c0.3,0,0.59-0.27,0.91-0.85c0.8-1.45,0.59-2.62,0.99-4.91
		c0.22-1.26,0.33-1.9,0.66-2.21c0.84-0.81,1.85-0.16,4.24-0.87c1.06-0.32,1.3-0.58,1.76-0.41c0.76,0.28,1,1.32,1.4,3.17
		c0.44,2.01,0.66,3.02,0.32,3.94c-0.5,1.36-1.72,2.22-2.28,2.6c-1.05,0.74-1.79,0.83-2.4,1.79c-0.17,0.27-0.64,1-0.34,1.53
		c0.24,0.42,0.9,0.57,1.41,0.46c0.77-0.18,0.88-0.9,1.78-1.95c0.55-0.65,1.48-1.74,2.8-1.94c0.88-0.13,2.18,0.1,2.67,0.93
		c0.27,0.45,0.17,0.85-0.65,3.62c-0.76,2.59-0.83,2.77-1.1,3.06c-0.92,0.98-2.52,1.42-3.82,1.37c-1.05-0.04-1.8-0.39-2.4,0.1
		c-0.04,0.03-0.51,0.43-0.47,0.99c0.04,0.46,0.42,0.88,0.84,1c0.67,0.2,0.98-0.46,2.14-0.67c0.31-0.06,1.41-0.25,1.9,0.32
		c0.61,0.69-0.08,2.08-0.14,2.22c-0.66,1.3-2.15,1.99-3.42,1.97c-0.19,0-0.35-0.02-0.46-0.04c-6.01,0.75-8.56-0.48-9.75-1.82
		c-0.62-0.69-1.57-2.2-3.57-3.07c-1.11-0.48-1.55-0.34-2.47-0.75c-0.38-0.17-3.23-1.58-3.48-4.08c-0.03-0.26-0.1-1.18,0.44-2.07
		c0.55-0.91,1.69-1.69,2.72-1.49c0.68,0.13,1.25,0.68,1.58,1c0.58,0.56,0.76,1.02,1.16,1.02c0.33,0,0.64-0.3,0.77-0.6
		c0.26-0.57-0.13-1.13-0.52-2.16c-0.27-0.7-0.4-1.45-0.61-2.18c-0.56-1.93-0.64-6.64,1.97-8.32
		C152.76,195.11,154.33,194.77,155.39,195.45z"/>
	<path class="st4" d="M205.01,189.01c0.32,0.93-0.11,1.92-0.29,2.36c-0.31,0.73-0.74,1.19-1.18,1.67c-0.62,0.67-0.84,0.7-2.04,1.83
		c-0.62,0.59-0.95,0.95-1.04,1.49c-0.02,0.1-0.12,0.72,0.21,0.98c0.23,0.18,0.61,0.15,1.2-0.1c1.46-0.62,2-1.63,3.66-3.12
		c0.92-0.82,1.38-1.24,1.81-1.28c1.12-0.12,1.49,0.98,3.72,1.86c0.99,0.39,1.33,0.34,1.57,0.74c0.41,0.66-0.03,1.59-0.82,3.23
		c-0.87,1.78-1.3,2.67-2.1,3.17c-1.18,0.73-2.62,0.65-3.26,0.61c-1.23-0.07-1.84-0.44-2.87-0.08c-0.29,0.1-1.08,0.38-1.16,0.95
		c-0.07,0.46,0.34,0.97,0.79,1.18c0.69,0.33,1.2-0.15,2.5-0.42c0.8-0.16,2.15-0.44,3.27,0.2c0.75,0.42,1.59,1.36,1.47,2.29
		c-0.07,0.5-0.38,0.74-2.64,2.35c-2.11,1.5-2.27,1.6-2.65,1.66c-1.27,0.19-2.75-0.42-3.7-1.23c-0.77-0.65-1.12-1.36-1.88-1.35
		c-0.04,0-0.64,0.02-0.94,0.47c-0.25,0.37-0.21,0.91,0.04,1.25c0.38,0.55,1.02,0.24,2.01,0.77c0.27,0.14,1.21,0.65,1.25,1.37
		c0.05,0.88-1.29,1.53-1.43,1.59c-1.27,0.59-2.81,0.22-3.75-0.54c-0.14-0.12-0.25-0.23-0.32-0.3c-4.98-3-6.18-5.44-6.28-7.17
		c-0.05-0.89,0.12-2.59-0.88-4.44c-0.55-1.02-0.97-1.17-1.42-2.04c-0.18-0.35-1.51-3.11-0.2-5.14c0.14-0.21,0.62-0.95,1.56-1.3
		c0.96-0.36,2.28-0.27,2.94,0.49c0.44,0.5,0.54,1.26,0.6,1.7c0.11,0.77-0.04,1.22,0.27,1.46c0.25,0.19,0.66,0.15,0.94,0
		c0.53-0.28,0.58-0.93,0.89-1.94c0.21-0.69,0.56-1.33,0.83-2.01c0.72-1.79,3.46-5.39,6.43-5.11
		C203.24,187.19,204.62,187.87,205.01,189.01z"/>
	<path class="st5" d="M181.5,241.24c-0.77,0.61-1.85,0.54-2.32,0.51c-0.79-0.05-1.37-0.3-1.97-0.56c-0.84-0.36-0.94-0.56-2.4-1.31
		c-0.76-0.39-1.21-0.58-1.75-0.49c-0.1,0.02-0.72,0.13-0.86,0.53c-0.09,0.28,0.07,0.62,0.5,1.09c1.07,1.17,2.2,1.34,4.16,2.41
		c1.08,0.59,1.62,0.89,1.81,1.28c0.48,1.02-0.43,1.73-0.51,4.12c-0.04,1.07,0.12,1.36-0.17,1.73c-0.49,0.61-1.51,0.5-3.32,0.3
		c-1.97-0.22-2.95-0.34-3.69-0.93c-1.08-0.87-1.48-2.25-1.67-2.87c-0.34-1.19-0.2-1.88-0.88-2.73c-0.19-0.24-0.71-0.89-1.28-0.78
		c-0.46,0.09-0.8,0.64-0.85,1.14c-0.08,0.76,0.54,1.08,1.23,2.22c0.42,0.7,1.13,1.88,0.9,3.15c-0.15,0.85-0.76,1.95-1.67,2.14
		c-0.5,0.11-0.83-0.11-3.09-1.7c-2.12-1.49-2.26-1.61-2.45-1.95c-0.61-1.14-0.51-2.73-0.07-3.9c0.36-0.94,0.91-1.51,0.65-2.22
		c-0.02-0.04-0.23-0.6-0.75-0.73c-0.43-0.11-0.93,0.11-1.17,0.45c-0.39,0.54,0.12,1.04-0.05,2.15c-0.05,0.3-0.21,1.36-0.88,1.63
		c-0.82,0.34-1.87-0.71-1.97-0.82c-0.98-1-1.15-2.57-0.73-3.71c0.06-0.18,0.13-0.31,0.18-0.41c1.17-5.7,3.08-7.64,4.67-8.31
		c0.82-0.35,2.49-0.75,3.9-2.3c0.78-0.86,0.78-1.3,1.45-2.02c0.27-0.29,2.43-2.45,4.78-1.9c0.24,0.06,1.1,0.27,1.74,1.04
		c0.65,0.78,1.01,2.06,0.52,2.93c-0.33,0.58-1.01,0.93-1.4,1.13c-0.69,0.36-1.16,0.37-1.28,0.74c-0.1,0.3,0.08,0.67,0.31,0.89
		c0.44,0.41,1.07,0.23,2.12,0.19c0.72-0.03,1.44,0.08,2.17,0.11c1.93,0.09,6.23,1.47,6.96,4.36
		C182.63,238.96,182.45,240.49,181.5,241.24z"/>
	<path class="st5" d="M212.01,223.64c-0.24,0.97-1.16,1.59-1.56,1.85c-0.67,0.45-1.29,0.61-1.94,0.77
		c-0.91,0.23-1.11,0.13-2.76,0.43c-0.86,0.16-1.34,0.28-1.72,0.69c-0.07,0.08-0.5,0.55-0.37,0.96c0.1,0.28,0.44,0.46,1.08,0.58
		c1.59,0.28,2.62-0.28,4.86-0.63c1.24-0.19,1.86-0.29,2.26-0.09c1.02,0.52,0.73,1.66,2.15,3.65c0.63,0.89,0.95,1.02,0.94,1.5
		c-0.02,0.79-0.91,1.35-2.49,2.3c-1.73,1.04-2.59,1.56-3.55,1.54c-1.42-0.03-2.6-0.9-3.13-1.29c-1.02-0.74-1.33-1.4-2.41-1.66
		c-0.3-0.07-1.13-0.27-1.52,0.17c-0.32,0.36-0.25,1.02,0.02,1.45c0.41,0.66,1.11,0.54,2.37,1.03c0.77,0.3,2.08,0.82,2.69,1.99
		c0.4,0.78,0.6,2.05-0.02,2.77c-0.34,0.39-0.74,0.42-3.56,0.54c-2.64,0.11-2.83,0.11-3.19-0.05c-1.2-0.54-2.11-1.89-2.48-3.11
		c-0.3-0.98-0.2-1.79-0.85-2.2c-0.04-0.02-0.56-0.34-1.06-0.12c-0.41,0.18-0.68,0.66-0.66,1.09c0.03,0.68,0.74,0.77,1.29,1.77
		c0.15,0.27,0.68,1.23,0.31,1.87c-0.45,0.78-1.95,0.59-2.1,0.57c-1.41-0.2-2.53-1.37-2.9-2.55c-0.06-0.18-0.09-0.34-0.11-0.44
		c-2.59-5.33-2.26-8.08-1.39-9.62c0.45-0.79,1.54-2.15,1.72-4.28c0.1-1.18-0.18-1.54-0.08-2.53c0.04-0.4,0.44-3.5,2.69-4.51
		c0.23-0.11,1.06-0.47,2.06-0.24c1.01,0.23,2.1,1.04,2.24,2.05c0.09,0.67-0.24,1.38-0.43,1.79c-0.34,0.72-0.71,1.02-0.58,1.4
		c0.11,0.3,0.48,0.49,0.8,0.52c0.61,0.06,1.01-0.48,1.84-1.17c0.57-0.47,1.22-0.83,1.82-1.25c1.61-1.13,5.95-2.68,8.34-0.8
		C211.51,221.1,212.31,222.45,212.01,223.64z"/>
	<path class="st5" d="M179.64,166.53c0.66,0.58,0.78,1.54,0.83,1.96c0.09,0.71-0.04,1.25-0.17,1.82c-0.18,0.8-0.34,0.92-0.76,2.33
		c-0.22,0.73-0.31,1.16-0.14,1.62c0.03,0.08,0.23,0.61,0.61,0.67c0.26,0.04,0.54-0.16,0.88-0.62c0.85-1.13,0.82-2.16,1.44-4.06
		c0.34-1.05,0.51-1.57,0.83-1.8c0.82-0.59,1.59,0.09,3.71-0.23c0.94-0.14,1.18-0.33,1.55-0.13c0.61,0.33,0.69,1.25,0.81,2.87
		c0.13,1.77,0.19,2.65-0.21,3.4c-0.59,1.1-1.74,1.68-2.26,1.94c-0.99,0.5-1.62,0.49-2.26,1.23c-0.18,0.21-0.66,0.77-0.47,1.26
		c0.15,0.39,0.7,0.6,1.14,0.56c0.68-0.06,0.86-0.66,1.75-1.44c0.55-0.48,1.47-1.3,2.62-1.31c0.77-0.01,1.84,0.35,2.16,1.12
		c0.17,0.42,0.04,0.75-0.99,3c-0.96,2.11-1.04,2.26-1.31,2.47c-0.9,0.72-2.32,0.9-3.42,0.7c-0.89-0.16-1.48-0.55-2.06-0.21
		c-0.03,0.02-0.49,0.3-0.52,0.78c-0.02,0.4,0.25,0.8,0.59,0.96c0.54,0.25,0.89-0.27,1.9-0.31c0.27-0.01,1.23-0.04,1.58,0.5
		c0.43,0.67-0.32,1.76-0.39,1.87c-0.72,1.03-2.08,1.43-3.15,1.26c-0.16-0.03-0.3-0.06-0.39-0.09c-5.21-0.1-7.23-1.45-8.08-2.74
		c-0.44-0.66-1.07-2.06-2.67-3.05c-0.89-0.55-1.28-0.48-2.01-0.94c-0.3-0.19-2.56-1.74-2.46-3.9c0.01-0.22,0.06-1.02,0.63-1.71
		c0.58-0.7,1.65-1.23,2.5-0.94c0.56,0.19,0.98,0.74,1.23,1.05c0.43,0.55,0.52,0.96,0.86,1.01c0.28,0.04,0.58-0.18,0.73-0.42
		c0.29-0.45,0.03-0.98-0.18-1.9c-0.15-0.63-0.17-1.29-0.26-1.93c-0.24-1.71,0.27-5.73,2.69-6.84
		C177.45,165.92,178.83,165.82,179.64,166.53z"/>
	<path class="st4" d="M221.68,159.09c0.2,0.77-0.2,1.55-0.37,1.89c-0.29,0.57-0.67,0.92-1.05,1.28c-0.54,0.51-0.72,0.52-1.76,1.36
		c-0.54,0.44-0.83,0.71-0.93,1.15c-0.02,0.08-0.14,0.58,0.12,0.81c0.17,0.16,0.48,0.15,0.97-0.01c1.22-0.42,1.71-1.2,3.15-2.32
		c0.79-0.61,1.19-0.92,1.54-0.93c0.91-0.03,1.15,0.88,2.9,1.72c0.78,0.37,1.06,0.35,1.23,0.69c0.29,0.56-0.11,1.29-0.85,2.57
		c-0.8,1.39-1.21,2.09-1.88,2.44c-1,0.52-2.16,0.38-2.68,0.31c-0.99-0.13-1.47-0.46-2.32-0.23c-0.24,0.07-0.89,0.24-1,0.7
		c-0.08,0.37,0.22,0.8,0.57,1c0.54,0.3,0.98-0.05,2.05-0.19c0.66-0.09,1.77-0.23,2.64,0.35c0.58,0.39,1.21,1.2,1.05,1.94
		c-0.08,0.4-0.35,0.58-2.27,1.75c-1.8,1.09-1.93,1.17-2.24,1.19c-1.04,0.08-2.2-0.5-2.92-1.21c-0.58-0.57-0.83-1.17-1.44-1.2
		c-0.04,0-0.52-0.02-0.79,0.32c-0.22,0.28-0.22,0.72-0.04,1.02c0.28,0.46,0.81,0.25,1.58,0.74c0.21,0.13,0.94,0.59,0.93,1.18
		c-0.01,0.72-1.14,1.16-1.25,1.2c-1.06,0.4-2.29,0.02-3-0.66c-0.11-0.1-0.19-0.2-0.24-0.27c-3.86-2.72-4.69-4.76-4.68-6.17
		c0.01-0.72,0.25-2.1-0.45-3.65c-0.39-0.86-0.72-1.01-1.03-1.73c-0.13-0.29-1.04-2.61,0.13-4.18c0.12-0.16,0.56-0.73,1.34-0.96
		c0.79-0.23,1.86-0.09,2.35,0.57c0.32,0.43,0.36,1.05,0.39,1.41c0.04,0.63-0.1,0.99,0.14,1.2c0.19,0.17,0.53,0.16,0.76,0.06
		c0.45-0.19,0.52-0.72,0.83-1.52c0.21-0.55,0.53-1.05,0.79-1.58c0.69-1.41,3.11-4.17,5.5-3.77
		C220.34,157.51,221.43,158.14,221.68,159.09z"/>
	<path class="st5" d="M237.85,201.21c0.05,0.98-0.63,1.82-0.92,2.19c-0.5,0.62-1.03,0.94-1.59,1.28c-0.78,0.48-1,0.44-2.46,1.2
		c-0.76,0.4-1.17,0.65-1.41,1.15c-0.04,0.09-0.31,0.66-0.06,1c0.17,0.24,0.55,0.31,1.18,0.23c1.57-0.2,2.37-1.02,4.37-2.01
		c1.11-0.54,1.66-0.81,2.09-0.74c1.11,0.19,1.16,1.35,3.07,2.8c0.85,0.65,1.19,0.68,1.31,1.14c0.21,0.75-0.46,1.52-1.67,2.88
		c-1.32,1.48-1.98,2.22-2.88,2.48c-1.34,0.38-2.7-0.09-3.31-0.3c-1.17-0.4-1.65-0.92-2.74-0.86c-0.31,0.02-1.14,0.07-1.38,0.6
		c-0.19,0.43,0.07,1.02,0.44,1.35c0.57,0.5,1.19,0.18,2.52,0.28c0.81,0.06,2.19,0.16,3.09,1.08c0.6,0.61,1.15,1.74,0.79,2.6
		c-0.2,0.47-0.57,0.61-3.18,1.54c-2.44,0.87-2.62,0.92-3,0.87c-1.28-0.16-2.53-1.16-3.22-2.19c-0.56-0.84-0.71-1.62-1.44-1.81
		c-0.04-0.01-0.62-0.16-1.03,0.19c-0.34,0.29-0.45,0.82-0.31,1.22c0.22,0.63,0.91,0.5,1.73,1.29c0.22,0.21,0.99,0.95,0.83,1.66
		c-0.2,0.86-1.66,1.12-1.8,1.14c-1.38,0.22-2.76-0.55-3.46-1.54c-0.11-0.15-0.18-0.29-0.23-0.38c-3.98-4.25-4.46-6.92-4.09-8.61
		c0.19-0.87,0.82-2.46,0.37-4.51c-0.25-1.13-0.61-1.39-0.81-2.35c-0.08-0.39-0.6-3.4,1.21-5c0.19-0.17,0.86-0.74,1.86-0.82
		c1.02-0.08,2.27,0.36,2.69,1.27c0.28,0.6,0.18,1.36,0.11,1.8c-0.11,0.77-0.37,1.16-0.13,1.48c0.19,0.25,0.59,0.32,0.9,0.26
		c0.59-0.12,0.81-0.74,1.38-1.62c0.39-0.61,0.9-1.13,1.34-1.7c1.18-1.52,4.8-4.24,7.58-3.17C236.64,198.97,237.79,200,237.85,201.21
		z"/>
	<path class="st5" d="M259.44,229.51c-0.14,0.84-0.87,1.43-1.18,1.68c-0.54,0.43-1.05,0.61-1.58,0.79c-0.75,0.26-0.93,0.19-2.3,0.57
		c-0.72,0.19-1.11,0.33-1.41,0.71c-0.05,0.07-0.39,0.5-0.24,0.84c0.1,0.23,0.41,0.36,0.96,0.41c1.37,0.12,2.19-0.43,4.07-0.89
		c1.04-0.26,1.56-0.38,1.91-0.24c0.9,0.37,0.74,1.35,2.08,2.94c0.6,0.7,0.88,0.8,0.9,1.21c0.04,0.67-0.67,1.21-1.94,2.13
		c-1.39,1.01-2.08,1.51-2.9,1.56c-1.2,0.08-2.27-0.57-2.75-0.86c-0.91-0.56-1.23-1.09-2.16-1.23c-0.26-0.04-0.98-0.15-1.28,0.25
		c-0.24,0.33-0.13,0.88,0.12,1.23c0.39,0.53,0.98,0.37,2.08,0.7c0.68,0.2,1.82,0.54,2.42,1.49c0.4,0.63,0.66,1.69,0.18,2.35
		c-0.26,0.36-0.59,0.41-2.97,0.72c-2.23,0.29-2.39,0.3-2.7,0.19c-1.05-0.37-1.93-1.45-2.32-2.45c-0.32-0.81-0.3-1.5-0.88-1.8
		c-0.03-0.02-0.5-0.25-0.91-0.03c-0.34,0.18-0.53,0.61-0.48,0.97c0.07,0.57,0.68,0.6,1.22,1.41c0.15,0.22,0.66,0.99,0.4,1.56
		c-0.33,0.7-1.61,0.64-1.74,0.63c-1.21-0.07-2.24-0.98-2.64-1.95c-0.06-0.15-0.1-0.28-0.12-0.36c-2.58-4.33-2.5-6.68-1.88-8.04
		c0.32-0.7,1.15-1.94,1.14-3.75c0-1.01-0.26-1.29-0.25-2.14c0-0.34,0.12-2.99,1.95-4.01c0.19-0.11,0.86-0.47,1.72-0.35
		c0.88,0.12,1.85,0.73,2.05,1.57c0.13,0.56-0.1,1.18-0.24,1.54c-0.23,0.63-0.53,0.92-0.39,1.23c0.11,0.25,0.44,0.38,0.72,0.39
		c0.52,0,0.82-0.48,1.47-1.12c0.44-0.44,0.97-0.79,1.45-1.19c1.28-1.07,4.84-2.71,7-1.29C258.82,227.4,259.61,228.48,259.44,229.51z
		"/>
	<path class="st4" d="M247.7,257.53c-0.34,0.92-1.29,1.43-1.7,1.65c-0.7,0.37-1.32,0.46-1.97,0.56c-0.91,0.13-1.09,0.02-2.73,0.15
		c-0.85,0.07-1.33,0.14-1.75,0.51c-0.07,0.07-0.55,0.49-0.45,0.9c0.07,0.28,0.38,0.49,1,0.67c1.52,0.43,2.58-0.02,4.81-0.14
		c1.23-0.07,1.85-0.1,2.21,0.14c0.94,0.61,0.55,1.69,1.73,3.78c0.53,0.93,0.82,1.09,0.76,1.56c-0.1,0.77-1.02,1.22-2.66,2
		c-1.79,0.84-2.69,1.27-3.62,1.15c-1.38-0.17-2.45-1.13-2.93-1.57c-0.92-0.83-1.16-1.5-2.19-1.86c-0.29-0.1-1.07-0.38-1.5,0.01
		c-0.34,0.32-0.34,0.97-0.12,1.42c0.33,0.69,1.03,0.63,2.21,1.24c0.72,0.37,1.95,1.01,2.42,2.21c0.32,0.8,0.38,2.06-0.3,2.7
		c-0.37,0.35-0.76,0.34-3.53,0.18c-2.59-0.15-2.77-0.18-3.1-0.37c-1.11-0.65-1.87-2.05-2.11-3.28c-0.19-0.99-0.02-1.77-0.61-2.23
		c-0.04-0.03-0.51-0.39-1.02-0.23c-0.42,0.13-0.73,0.58-0.76,1c-0.04,0.67,0.64,0.82,1.08,1.86c0.12,0.28,0.54,1.26,0.11,1.85
		c-0.52,0.72-1.96,0.38-2.11,0.34c-1.36-0.34-2.33-1.59-2.58-2.77c-0.04-0.18-0.05-0.34-0.06-0.44c-2-5.46-1.4-8.11-0.4-9.52
		c0.51-0.72,1.72-1.95,2.1-4.01c0.21-1.14-0.02-1.52,0.17-2.48c0.08-0.39,0.78-3.37,3.07-4.13c0.24-0.08,1.08-0.35,2.03-0.03
		c0.97,0.32,1.95,1.22,1.98,2.22c0.02,0.66-0.37,1.32-0.6,1.7c-0.4,0.67-0.79,0.93-0.7,1.31c0.07,0.3,0.42,0.53,0.73,0.59
		c0.59,0.12,1.03-0.36,1.91-0.95c0.6-0.41,1.27-0.69,1.9-1.04c1.68-0.94,6.07-2.03,8.21,0.05C247.46,255,248.11,256.4,247.7,257.53z
		"/>
	<path class="st4" d="M216.93,267.92c-0.93,0.46-2.03,0.15-2.51,0.02c-0.81-0.23-1.35-0.61-1.91-1.01
		c-0.79-0.56-0.85-0.79-2.19-1.89c-0.7-0.57-1.12-0.87-1.7-0.89c-0.11,0-0.77-0.03-1,0.36c-0.16,0.26-0.07,0.66,0.27,1.24
		c0.85,1.45,1.98,1.88,3.77,3.41c0.99,0.85,1.48,1.28,1.59,1.72c0.27,1.16-0.82,1.69-1.44,4.15c-0.28,1.09-0.17,1.44-0.56,1.75
		c-0.64,0.52-1.67,0.19-3.5-0.42c-1.99-0.67-2.98-1-3.61-1.77c-0.93-1.14-1.04-2.66-1.09-3.34c-0.09-1.3,0.21-1.99-0.31-3.02
		c-0.15-0.29-0.54-1.08-1.15-1.09c-0.5-0.01-0.97,0.49-1.13,0.99c-0.25,0.77,0.32,1.24,0.78,2.57c0.28,0.82,0.75,2.19,0.24,3.46
		c-0.34,0.84-1.22,1.85-2.2,1.85c-0.54,0-0.83-0.3-2.82-2.45c-1.86-2.01-1.99-2.16-2.1-2.55c-0.38-1.31,0.07-2.94,0.79-4.05
		c0.58-0.89,1.28-1.36,1.16-2.15c-0.01-0.05-0.11-0.67-0.62-0.92c-0.42-0.21-0.98-0.09-1.31,0.21c-0.52,0.48-0.11,1.1-0.53,2.21
		c-0.11,0.3-0.51,1.36-1.27,1.5c-0.92,0.17-1.78-1.15-1.86-1.28c-0.79-1.25-0.62-2.92,0.06-4c0.1-0.17,0.21-0.3,0.28-0.38
		c2.47-5.63,4.87-7.22,6.66-7.56c0.92-0.18,2.74-0.23,4.54-1.52c1-0.72,1.1-1.17,1.95-1.77c0.34-0.24,3.06-2,5.37-0.91
		c0.24,0.11,1.08,0.53,1.57,1.46c0.5,0.95,0.59,2.36-0.11,3.15c-0.47,0.53-1.25,0.74-1.7,0.86c-0.8,0.22-1.28,0.13-1.49,0.48
		c-0.17,0.29-0.07,0.71,0.12,0.98c0.36,0.52,1.05,0.48,2.15,0.67c0.75,0.13,1.48,0.4,2.22,0.6c1.97,0.51,6.12,2.9,6.24,6.05
		C218.6,265.81,218.07,267.36,216.93,267.92z"/>
	<path class="st5" d="M180.41,275.2c-0.8,0.15-1.56-0.32-1.9-0.52c-0.56-0.34-0.89-0.75-1.23-1.17c-0.48-0.59-0.47-0.77-1.25-1.89
		c-0.41-0.58-0.66-0.89-1.1-1.03c-0.08-0.03-0.58-0.19-0.83,0.06c-0.17,0.17-0.19,0.48-0.06,0.99c0.33,1.27,1.1,1.83,2.12,3.37
		c0.56,0.85,0.85,1.28,0.83,1.64c-0.04,0.93-0.98,1.1-1.97,2.82c-0.44,0.77-0.43,1.05-0.79,1.2c-0.59,0.26-1.3-0.21-2.55-1.06
		c-1.36-0.92-2.03-1.38-2.34-2.1c-0.46-1.06-0.22-2.22-0.11-2.75c0.21-1,0.58-1.46,0.41-2.34c-0.05-0.25-0.18-0.93-0.64-1.07
		c-0.37-0.11-0.83,0.16-1.06,0.51c-0.35,0.52-0.02,1,0.04,2.1c0.04,0.67,0.1,1.81-0.56,2.66c-0.44,0.56-1.31,1.14-2.05,0.93
		c-0.41-0.11-0.56-0.4-1.61-2.44c-0.98-1.91-1.04-2.05-1.04-2.37c-0.01-1.07,0.68-2.2,1.45-2.88c0.63-0.55,1.25-0.76,1.33-1.37
		c0-0.04,0.06-0.53-0.27-0.83c-0.27-0.25-0.72-0.28-1.03-0.12c-0.49,0.25-0.32,0.81-0.87,1.56c-0.15,0.2-0.68,0.91-1.27,0.86
		c-0.73-0.07-1.1-1.24-1.13-1.36c-0.33-1.11,0.15-2.33,0.9-3c0.11-0.1,0.22-0.18,0.29-0.23c3.06-3.72,5.2-4.41,6.63-4.29
		c0.73,0.06,2.11,0.41,3.74-0.18c0.9-0.33,1.08-0.65,1.84-0.92c0.31-0.11,2.73-0.86,4.24,0.45c0.16,0.14,2.27,1.33,2.68,2.05
		c0.65,1.16-0.37,2.45-2.38,1.99c-0.54-0.12-1.27,0.04-1.64,0.03c-0.65-0.01-0.99-0.18-1.23,0.05c-0.19,0.18-0.2,0.52-0.12,0.77
		c0.16,0.47,0.69,0.58,1.48,0.96c0.54,0.26,1.03,0.62,1.54,0.92c1.38,0.81,2.58,3.56,3.42,5.88
		C182.8,274.32,181.39,275.01,180.41,275.2z"/>
	<path class="st5" d="M176.24,131.83c0.81,0.65,1,1.78,1.08,2.27c0.14,0.83,0.02,1.48-0.11,2.16c-0.18,0.96-0.35,1.1-0.78,2.79
		c-0.22,0.88-0.31,1.39-0.09,1.92c0.04,0.1,0.3,0.71,0.75,0.76c0.31,0.03,0.63-0.22,1.01-0.77c0.95-1.38,0.86-2.59,1.5-4.87
		c0.35-1.26,0.53-1.89,0.89-2.17c0.93-0.74,1.88,0.03,4.37-0.45c1.11-0.21,1.38-0.45,1.82-0.24c0.74,0.36,0.88,1.44,1.1,3.35
		c0.24,2.08,0.36,3.12-0.08,4.02c-0.64,1.33-1.97,2.07-2.57,2.4c-1.14,0.64-1.89,0.65-2.61,1.56c-0.2,0.25-0.75,0.95-0.5,1.51
		c0.2,0.45,0.86,0.67,1.38,0.61c0.8-0.1,0.98-0.82,2-1.79c0.62-0.6,1.67-1.61,3.03-1.68c0.91-0.04,2.19,0.32,2.61,1.22
		c0.23,0.49,0.08,0.88-1.02,3.59c-1.03,2.54-1.12,2.72-1.43,2.99c-1.03,0.9-2.7,1.18-4,1c-1.06-0.15-1.78-0.58-2.44-0.14
		c-0.04,0.03-0.56,0.38-0.58,0.95c-0.01,0.47,0.33,0.93,0.74,1.1c0.65,0.27,1.04-0.37,2.23-0.46c0.32-0.02,1.45-0.11,1.89,0.52
		c0.54,0.76-0.29,2.1-0.37,2.23c-0.8,1.25-2.38,1.79-3.66,1.64c-0.2-0.02-0.36-0.06-0.46-0.09c-6.16,0.15-8.61-1.35-9.68-2.83
		c-0.55-0.76-1.37-2.39-3.3-3.47c-1.07-0.6-1.53-0.5-2.43-1.02c-0.36-0.21-3.11-1.92-3.1-4.48c0-0.27,0.02-1.2,0.66-2.05
		c0.65-0.86,1.89-1.54,2.9-1.23c0.67,0.2,1.2,0.82,1.5,1.18c0.53,0.63,0.66,1.11,1.07,1.15c0.33,0.03,0.67-0.24,0.84-0.53
		c0.32-0.55-0.01-1.16-0.31-2.24c-0.2-0.74-0.26-1.51-0.4-2.26c-0.37-2.01,0.03-6.78,2.84-8.22
		C173.62,131.21,175.24,131.03,176.24,131.83z"/>
	<path class="st4" d="M140.1,125.09c0.8,0.23,1.28,1,1.49,1.33c0.35,0.56,0.46,1.08,0.58,1.61c0.16,0.75,0.07,0.91,0.27,2.27
		c0.1,0.71,0.19,1.1,0.52,1.43c0.06,0.06,0.44,0.43,0.78,0.33c0.24-0.07,0.4-0.35,0.51-0.87c0.29-1.29-0.15-2.15-0.37-4
		c-0.12-1.02-0.18-1.53,0-1.85c0.47-0.82,1.4-0.55,3.1-1.65c0.76-0.49,0.88-0.75,1.28-0.72c0.66,0.04,1.09,0.78,1.83,2.11
		c0.81,1.45,1.21,2.17,1.16,2.96c-0.07,1.16-0.83,2.1-1.17,2.53c-0.65,0.81-1.2,1.05-1.46,1.93c-0.07,0.25-0.26,0.92,0.09,1.25
		c0.29,0.27,0.84,0.23,1.2,0.03c0.56-0.31,0.48-0.89,0.93-1.91c0.28-0.62,0.75-1.68,1.74-2.14c0.66-0.31,1.72-0.43,2.3,0.1
		c0.32,0.29,0.33,0.62,0.34,2.93c0.01,2.16,0,2.32-0.15,2.61c-0.49,0.96-1.64,1.67-2.66,1.94c-0.83,0.21-1.49,0.11-1.85,0.63
		c-0.02,0.03-0.3,0.45-0.14,0.87c0.14,0.34,0.53,0.58,0.88,0.58c0.56,0,0.66-0.58,1.51-1.01c0.23-0.11,1.04-0.52,1.56-0.2
		c0.63,0.39,0.42,1.62,0.4,1.74c-0.21,1.15-1.22,2.03-2.21,2.3c-0.15,0.04-0.28,0.06-0.37,0.07c-4.51,1.96-6.78,1.61-8.02,0.85
		c-0.64-0.39-1.74-1.33-3.5-1.53c-0.98-0.11-1.28,0.1-2.1-0.01c-0.33-0.04-2.89-0.47-3.65-2.33c-0.08-0.19-0.35-0.88-0.13-1.69
		c0.22-0.82,0.93-1.69,1.77-1.77c0.56-0.06,1.13,0.24,1.47,0.41c0.59,0.3,0.83,0.61,1.14,0.51c0.25-0.08,0.43-0.38,0.46-0.64
		c0.07-0.5-0.36-0.84-0.91-1.54c-0.37-0.48-0.65-1.02-0.98-1.53c-0.88-1.35-2.03-4.95-0.4-6.85
		C137.97,125.43,139.12,124.81,140.1,125.09z"/>
	<path class="st6" d="M127.21,201.97l12.44,10.5l0.62-0.09l-0.18-3.44l-1.06-4.32l-0.18-2.21l3.79-1.76l1.06-0.18l1.76,3.79
		l-2.82,2.03l-1.06,3.62l0.79,3.35l1.94,3.35l5.03,1.94l2.47,1.5l0.53,6.97l0.97-0.53l3.44-3.88h9.53l-13.15,16.15v0.62l2.38-1.32
		l0.35,0.97l-1.15,1.85l-0.18,5.03l1.68,2.65l-4.06,6.09l0.53,8.82l1.85,7.15l2.91,9l2.82,8.82l1.06,6.97l1.24,6.62l1.59,4.94
		l1.24,2.56l1.85,2.56l2.38,3.18l3.09,3.18l4.85,3.35l2.65,2.82l4.94,2.03l8.38,2.38l8.91,1.94l7.59,1.85l10.32,1.24l8.65,1.5
		l11.47,0.97l9.71,1.15h5.65l2.29,0.26l2.03,0.97l0.79,1.15l-2.82,0.79l-5.47,0.97L236.27,342l-12.79-0.79l-15.97-2.65l-8.47,0.26
		l-8.38,0.44l-1.94,0.71l0.18,1.06l3.97,0.53l3.88,1.06l3.35,1.5l3.35,1.5l5.29,0.71l4.76,0.35l1.5,0.88l-5.21,0.44H197l-6.26-0.71
		l-5.21-1.68l-5.29-3.53l-2.12-1.68l-3.18-0.26l-3.35-1.76l-2.74-1.32l-2.12-0.97l-1.15,1.24l-3.09,5.91l-3.09,3.09l-2.74,3.26
		l-2.47,2.56c0,0-1.5,1.24-1.85,1.24s-3.44,0.71-3.44,0.71l-2.47-0.88l0.88-1.68l1.81-1.54l3.26-2.82l2.07-1.9l1.24-2.47l1.01-1.5
		l0.49-1.37l-1.1-0.93l-2.82,0.75l-2.07,1.81l-1.72,0.93l-1.68-0.04l0.31-0.88l0.53-0.31l-0.35-1.28l-3.18-0.26l-3.93,0.44
		l-5.12,1.54l-5.56,0.66l-4.81,1.01l-3.09,0.49l-3.09,0.93l-2.69,0.53l-1.94,0.79l-2.43,0.09l-0.53-1.24l1.85-0.66l3.79-2.07
		l3.35-1.81l3.66-1.24l1.94-1.06l1.85-1.01l1.46-1.01l0.13-1.01l-1.59-0.18l-3.66,0.49l-3.66,1.37l-3.62,1.68l-5.69,1.94l-2.87,0.97
		l-3.4,0.09c0,0-1.94,0.4-2.07,0.44s-1.63,1.06-1.63,1.06l-1.5-0.62l0.79-1.28c0,0,1.37-2.29,1.59-2.43s2.51-1.46,2.51-1.46
		l-1.99-0.09l-3.26,0.93l-8.82,1.46l-7.94,1.59l-7.1,1.06l-7.19,1.01l-6.09,0.62l-4.54-0.4l-0.79-1.5l2.74-0.75l4.15-1.37l4.99-0.97
		l5.78-1.01l8.03-0.31l7.85-0.35l6.84-1.5l8.69-2.43l7.68-2.91l8.69-3.31c0,0,5.16-3.22,5.47-3.31c0.31-0.09,5.34-4.46,5.34-4.46
		l5.38-6.04l2.65-6.93l0.79-5.12l0.18-8.43l-0.13-32.74l0.84-16.76l-1.19-1.1l-1.24-1.63l-0.57-1.81l1.1-2.21l0.93-3l0.97-1.81
		l1.1-1.68l0.22-8.56l-0.53-2.21l-1.5-1.76l-1.76-2.21l-1.24-0.75h-3.31l-2.38-0.93l-5.65-0.26l-5.87-4.63l-4.28-2.25l2.96-1.85
		l3.93-1.76L127.21,201.97z"/>
	<polygon class="st6" points="173.77,202.59 183.18,192.76 185.06,192.76 185.3,195.06 185.59,198.18 186.41,200.35 185.82,201.76 
		174.12,214.12 171.77,216.12 171.41,214.59 173.77,211.94 	"/>
	<polygon class="st6" points="145.88,197.82 150.88,193 152.71,192.06 154,190 154.35,188.65 147.82,188.65 145.77,197.18 	"/>
	<polygon class="st6" points="192.06,186.12 194.88,182.41 198.18,178.94 201.94,175.35 205.24,172.76 208.41,177.59 210.12,180.59 
		205.12,185.41 197.77,185.82 194.06,188.41 192.3,188.12 	"/>
	<polygon class="st6" points="164.77,173.41 168.24,169.47 171.24,164.59 173.06,160.53 173.35,158.88 170.24,156.59 166.88,158.29 
		165,159.41 164.41,155.94 160.94,162.24 161.41,168.59 	"/>
	<polygon class="st6" points="132.94,183 133.77,178.71 131.82,175.12 127.47,169.94 128.35,173.18 129.41,177.82 	"/>
	<path class="st6" d="M93.47,190.91l4.21,9.44c0,0,2.79,0.03,2.88,0.03s2.21,0,2.21,0l1.82,1.82l1.82,0.12l0.71-1.29v-1.47
		l-4.35-3.91l-1.21-3.53l-4.18-0.76l-3.94-0.56L93.47,190.91z"/>
	<polygon class="st6" points="103.07,225.18 116.93,225.35 118.47,228.79 119.31,229.81 117.46,233.12 112.87,233.21 	"/>
	<polygon class="st6" points="82.03,228.44 86.88,227.56 90.94,226.85 92.71,227.03 95.57,229.1 89.35,236.21 85.43,236.74 
		82.03,230.74 	"/>
	<polygon class="st6" points="177.47,228 187,228 187,235.94 183.41,235.65 177.59,230.88 	"/>
	<path class="st6" d="M206.77,245.29l2.82-2.41c0,0,0-1.76,0.18-1.88s4.88-1.71,4.88-1.71l15.71,8.88l-2.76,1.82l-1.41,2.82
		l-0.65,2.18l-1.35,3.18l-5.71-5.18l-7.06-4.71L206.77,245.29z"/>
	<g>
		<g>
			<path class="st5" d="M347.63,298.46c-2.96,1.04-5.86,2.35-8.91,2.96c-0.98,0.2-2.67-1.21-3.47-2.3c-5.44-7.36-3.95-17.9,3.45-24
				c7.42-6.12,15.77-7.46,24.86-4.23c0.87,0.31,1.82,0.46,2.75,0.55c0.94,0.09,1.9,0.1,2.85,0.01c4.76-0.44,9.69,1.22,14.42-1.5
				c-2.69,6.82-8.37,5.62-13.55,5.54c3.31,14.16-5.08,21.31-15.89,27.33c1.1,0.6,2.2,1.13,3.24,1.76c3.98,2.41,8.15,4.57,11.85,7.34
				c8.6,6.44,9.18,15.66,1.72,23.41c-11.26,11.7-28.43,13.27-40.78,8.29c-7.4-2.99-11.26-8.93-10.27-15.49
				c0.21-1.39,0.86-3,1.85-3.94c2.16-2.06,4.67-3.75,7.06-5.57c0.19-0.15,0.55-0.07,1.19-0.13c-0.33,0.7-0.48,1.18-0.75,1.57
				c-3.83,5.56-3.34,11.43,1.37,16.25c9.28,9.49,27.61,8.01,35.3-2.86c3.77-5.33,3.36-10.35-1.42-14.78
				c-5.45-5.06-12.14-8.2-18.66-11.57c-0.7-0.36-1.47-0.61-2.11-1.06c-0.45-0.32-0.71-0.88-1.06-1.33c0.46-0.33,0.87-0.82,1.39-0.97
				c5.46-1.62,10.51-3.94,14.41-8.23c3.47-3.8,5.08-8.28,4.73-13.44c-0.43-6.2-4.12-9.59-10.34-9.5
				c-7.87,0.11-14.08,6.27-13.87,13.75C339.11,291.09,342.43,295.63,347.63,298.46z"/>
			<path class="st5" d="M564.87,277.65c2.12-0.73,4-1.38,6.32-2.18c-1.33,2.83-2.45,5.04-5.46,5.81
				c-10.06,2.58-20.06,5.35-30.12,7.94c-1.78,0.46-2.8,1.08-2.65,3.09c0.26,3.37,0.14,6.78,0.61,10.11
				c1.68,12.03,12.61,14.09,20.23,10.53c4.23-1.98,8.03-4.88,12.4-7.6c-0.37,1.36-0.3,3.31-1.22,4.13
				c-5.58,4.94-11.52,9.29-19.36,10.1c-9.33,0.96-16.55-3.22-19.51-12.11c-4.37-13.13-0.06-31.19,18.15-37.09
				c3.76-1.22,7.67-1.62,11.66-0.66C560.18,270.75,563.46,272.8,564.87,277.65z M533.53,287.98c1.89-1.24,3.43-2.77,5.27-3.36
				c4.86-1.57,9.85-2.74,14.79-4.05c3.07-0.82,3.67-2.46,1.91-5.22c-1.53-2.4-5.15-3.48-8.74-2.52
				C539.01,274.9,535.74,280.85,533.53,287.98z"/>
			<path class="st5" d="M513.44,278.01c2.07-0.74,3.9-1.38,5.72-2.03c-0.17,2.54-2.02,4.87-4.54,5.54
				c-10.11,2.71-20.21,5.44-30.36,8.01c-1.95,0.49-2.95,1.33-2.8,3.29c0.3,3.99,0.21,8.09,1.11,11.95
				c1.98,8.51,9.23,11.64,17.26,9.32c4.1-1.19,7.72-4.1,11.5-6.32c1.06-0.62,1.92-1.57,3.03-2.49c0.6,2.4,0.09,4.13-1.74,5.54
				c-5.46,4.2-10.92,8.32-18.15,9.07c-10.29,1.06-17.86-3.74-20.38-13.81c-2.76-11-0.25-24.46,11.84-32.17
				c5.65-3.6,11.78-5.2,18.49-3.82C508.73,270.98,511.95,273.2,513.44,278.01z M482.41,288.01c1.68-1.01,3.38-2.49,5.35-3.12
				c5.16-1.64,10.44-2.95,15.69-4.29c1.38-0.35,1.8-0.96,1.52-2.33c-0.68-3.29-2.83-5.17-6.25-5.34
				C491.04,272.54,483.32,279.81,482.41,288.01z"/>
			<path class="st5" d="M302.17,252.04c-1.31,1.75-2.09,3.18-3.24,4.21c-0.9,0.81-2.23,1.56-3.39,1.59
				c-5.77,0.16-11.55,0.03-17.32,0.13c-0.65,0.01-1.8,0.8-1.86,1.32c-0.94,8.62-1.75,17.25-2.58,25.87
				c-0.03,0.29,0.05,0.58,0.14,1.55c3.06-4.03,7.07-3.21,10.87-3.24c2.53-0.02,5.08,0.16,7.59-0.06c1.85-0.16,3.67-0.81,5.53-1.25
				c-0.76,3.44-3.17,5.46-6.43,5.46c-5.06,0-10.12,0.04-15.19-0.02c-1.83-0.02-2.9,0.34-3.08,2.51c-0.6,7.3-1.4,14.59-2.12,21.88
				c-0.05,0.47-0.03,0.95-0.08,1.42c-0.45,4.17-1.42,5.16-6.13,5.97c0-1.88-0.08-3.71,0.01-5.53c0.62-12.76,1.29-25.52,1.89-38.28
				c0.14-2.98,0.19-5.98,0.04-8.96c-0.13-2.44-1.09-4.55-3.41-5.87c-0.49-0.28-0.92-1.11-0.9-1.68c0.01-0.4,0.75-0.92,1.27-1.15
				c3.6-1.6,7.21-3.15,10.84-4.67c0.62-0.26,1.35-0.42,2.02-0.42c6.56,0.07,13.12,0.24,19.68,0.25c1.2,0,2.39-0.61,3.6-0.87
				C300.48,252.09,301.07,252.12,302.17,252.04z"/>
			<path class="st5" d="M437.08,250.09c-1.28,1.89-2.46,3.86-3.91,5.61c-0.54,0.65-1.7,1.08-2.59,1.1
				c-4.89,0.1-9.79,0.05-14.95,0.05c-0.46,4.57-0.92,9-1.35,13.44c-1.28,12.94-2.55,25.88-3.81,38.83
				c-0.12,1.26-0.11,2.52-0.24,3.78c-0.36,3.39-1.31,4.39-4.63,5.28c-1.4,0.38-1.73-0.23-1.67-1.41
				c0.65-12.21,1.31-24.41,1.94-36.62c0.39-7.64,0.73-15.28,1.12-23.55c-5.18,0.29-10.28,0.34-15.31,0.98
				c-1.55,0.2-2.87,2.02-4.33,3.05c-0.38,0.27-0.89,0.35-1.35,0.51c-0.03-0.48-0.24-1.05-0.06-1.43c1.11-2.35,2.21-4.72,3.54-6.95
				c0.37-0.62,1.51-1.12,2.3-1.12c11.54,0.09,23.09,0.26,34.63,0.43c3.2,0.05,6.34-0.05,8.9-2.43c0.31-0.29,1.01-0.14,1.54-0.2
				C436.93,249.66,437.01,249.88,437.08,250.09z"/>
			<path class="st5" d="M450.58,268.55c0.24,3.24,0.44,6.06,0.67,9.15c1.81-1.92,3.41-3.69,5.1-5.39c2.27-2.29,4.82-3.35,8.13-2.08
				c1.68,0.64,3.57,0.73,5.37,1.07c-2.32,5.1-4.65,6.33-10.38,5.06c-1.73-0.38-2.9-0.04-3.98,1.2c-3.26,3.75-5.66,7.75-5.89,13.02
				c-0.29,6.6-1.2,13.17-1.89,19.75c-0.5,4.72-0.41,4.82,4.68,3.03c-0.67,1.03-0.87,1.73-1.32,1.96c-2.53,1.29-5.07,2.56-7.69,3.64
				c-2.34,0.97-2.89,0.56-2.75-1.94c0.48-8.34,1.05-16.68,1.54-25.02c0.17-2.99,0.3-5.99,0.23-8.98c-0.07-2.77-0.33-5.5-3.33-7.05
				c-1.17-0.6-1.38-1.75,0.2-2.45C442.76,271.97,446.29,270.43,450.58,268.55z"/>
			<path class="st5" d="M319.17,268.99c-0.1,2.05-0.1,3.54-0.26,5c-1.28,11.44-2.6,22.87-3.89,34.31c-0.16,1.41-0.18,2.83-0.24,4.25
				c-0.08,1.89,0.57,2.73,2.55,1.79c0.61-0.29,1.32-0.38,2.52-0.7c-0.43,0.89-0.48,1.28-0.69,1.38c-2.87,1.49-5.72,3.04-8.66,4.38
				c-1.86,0.85-2.76,0.21-2.62-1.83c0.57-8.74,1.26-17.46,1.84-26.2c0.21-3.14,0.57-6.35,0.16-9.43c-0.24-1.81-1.65-3.64-2.93-5.11
				c-1.64-1.88-1.64-2.59,0.71-3.49c2.94-1.14,5.86-2.31,8.79-3.45C317.16,269.6,317.9,269.41,319.17,268.99z"/>
		</g>
		<path class="st5" d="M311.98,259.41c0.3-4.31,2.17-6.2,6.42-6.51c0.51-0.04,1.48,0.85,1.56,1.41c0.63,4.16-2.59,8.02-6.88,8.29
			c-0.42,0.03-1.18-0.69-1.28-1.17C311.64,260.72,311.92,259.9,311.98,259.41z"/>
	</g>
</g>
<line class="st7" x1="28.64" y1="375.89" x2="566.64" y2="370.89"/>
<text transform="matrix(1.0997 0 0 1 94.6714 399.7723)"><tspan x="0" y="0" class="st8 st1 st9 st10">WW</tspan><tspan x="39.82" y="0" class="st8 st1 st9 st11">W</tspan><tspan x="57.92" y="0" class="st8 st1 st9 st10">.</tspan><tspan x="65.45" y="0" class="st8 st1 st9 st11">F</tspan><tspan x="77.8" y="0" class="st8 st1 st9 st12">I</tspan><tspan x="84.65" y="0" class="st8 st1 st9 st12">G</tspan><tspan x="98.37" y="0" class="st8 st1 st9 st11">T</tspan><tspan x="110.9" y="0" class="st8 st1 st9 st11">R</tspan><tspan x="124.4" y="0" class="st8 st1 st9 st11">E</tspan><tspan x="136.89" y="0" class="st8 st1 st9 st11">ED</tspan><tspan x="164.01" y="0" class="st8 st1 st9 st11">EM</tspan><tspan x="194.49" y="0" class="st8 st1 st9 st11">E</tspan><tspan x="206.62" y="0" class="st8 st1 st9 st11">N</tspan><tspan x="221.85" y="0" class="st8 st1 st9 st11">T</tspan><tspan x="234.74" y="0" class="st8 st1 st9 st11">I</tspan><tspan x="243.03" y="0" class="st8 st1 st9 st12">A</tspan><tspan x="255.63" y="0" class="st8 st1 st9 st12">C</tspan><tspan x="269.06" y="0" class="st8 st1 st9 st11">AR</tspan><tspan x="295.95" y="0" class="st8 st1 st9 st12">E</tspan><tspan x="307.4" y="0" class="st8 st1 st9 st12">.</tspan><tspan x="312.41" y="0" class="st8 st1 st9 st12">C</tspan><tspan x="325.31" y="0" class="st8 st1 st9">O</tspan><tspan x="338.94" y="0" class="st8 st1 st9 st12">.U</tspan><tspan x="357.78" y="0" class="st8 st1 st9">K</tspan></text>
</svg>
